<?xml version="1.0" encoding="UTF-8" standalone="no"?>
<svg width="900px" height="900px" viewBox="0 0 900 900" version="1.1" xmlns="http://www.w3.org/2000/svg" xmlns:xlink="http://www.w3.org/1999/xlink" xmlns:sketch="http://www.bohemiancoding.com/sketch/ns">
    <!-- Generator: Sketch 3.2.2 (9983) - http://www.bohemiancoding.com/sketch -->
    <title>background</title>
    <desc>Created with Sketch.</desc>
    <defs>
        <linearGradient x1="50%" y1="27.0652039%" x2="50%" y2="100%" id="linearGradient-1">
            <stop stop-color="#AAAAAA" offset="0%"></stop>
            <stop stop-color="#81BB83" offset="100%"></stop>
        </linearGradient>
        <linearGradient x1="50%" y1="15.8274934%" x2="50%" y2="100%" id="linearGradient-2">
            <stop stop-color="#AAAAAA" offset="0%"></stop>
            <stop stop-color="#FEB6B2" offset="100%"></stop>
        </linearGradient>
        <linearGradient x1="50%" y1="16.5184951%" x2="50%" y2="100%" id="linearGradient-3">
            <stop stop-color="#83BA85" offset="0%"></stop>
            <stop stop-color="#AAAAAA" offset="100%"></stop>
        </linearGradient>
    </defs>
    <g id="Logos" stroke="none" stroke-width="1" fill="none" fill-rule="evenodd" sketch:type="MSPage">
        <g id="background" sketch:type="MSArtboardGroup" opacity="0.503498134">
            <g id="Imported-Layers" sketch:type="MSLayerGroup" transform="translate(23.000000, 20.000000)">
                <path d="M182.676,333.098 C172.044,333.098 161.633,334.818 151.655,338.145 C92.381,352.7 48.272,408.041 48.272,474.095 C48.272,540.153 92.381,595.497 151.655,610.05 C161.633,613.378 172.044,615.098 182.676,615.098 C213.777,615.098 243.003,600.399 264.969,573.707 C286.874,547.088 298.938,511.713 298.938,474.095 C298.938,396.348 246.783,333.098 182.676,333.098 L182.676,333.098 Z M182.676,612.497 C119.996,612.497 69.002,550.411 69.002,474.095 C69.002,397.78 119.996,335.696 182.676,335.696 C245.352,335.696 296.349,397.78 296.349,474.095 C296.349,550.411 245.352,612.497 182.676,612.497 L182.676,612.497 Z" id="Fill-1" fill="url(#linearGradient-1)" sketch:type="MSShapeGroup"></path>
                <path d="M701.412,578.511 C690.78,578.511 680.369,580.231 670.392,583.558 C611.117,598.114 567.009,653.454 567.009,719.508 C567.009,785.566 611.117,840.91 670.392,855.463 C680.369,858.791 690.78,860.511 701.412,860.511 C732.514,860.511 761.739,845.812 783.705,819.12 C805.61,792.501 817.674,757.126 817.674,719.508 C817.674,641.761 765.52,578.511 701.412,578.511 L701.412,578.511 Z M701.412,857.91 C638.732,857.91 587.738,795.824 587.738,719.508 C587.738,643.193 638.732,581.11 701.412,581.11 C764.088,581.11 815.085,643.193 815.085,719.508 C815.085,795.824 764.088,857.91 701.412,857.91 L701.412,857.91 Z" id="Fill-2" fill="url(#linearGradient-2)" sketch:type="MSShapeGroup"></path>
                <path d="M703.412,0.828 C692.78,0.828 682.369,2.549 672.392,5.875 C613.117,20.432 569.009,75.771 569.009,141.824 C569.009,207.883 613.117,263.227 672.392,277.779 C682.369,281.107 692.78,282.828 703.412,282.828 C734.514,282.828 763.739,268.129 785.705,241.438 C807.61,214.818 819.674,179.443 819.674,141.824 C819.674,64.078 767.52,0.828 703.412,0.828 L703.412,0.828 Z M703.412,280.227 C640.732,280.227 589.738,218.141 589.738,141.824 C589.738,65.51 640.732,3.428 703.412,3.428 C766.088,3.428 817.085,65.51 817.085,141.824 C817.085,218.141 766.088,280.227 703.412,280.227 L703.412,280.227 Z" id="Fill-3" fill="url(#linearGradient-3)" sketch:type="MSShapeGroup"></path>
                <path d="M135.325,488.546 L134.302,488.175 C128.61,486.108 125.152,482.708 124.815,478.843 C124.797,478.626 124.787,478.411 124.789,478.196 C122.211,476.952 120.502,474.718 119.811,472.37 C119.535,471.435 119.396,470.431 119.421,469.407 C117.199,468.579 115.522,467.169 114.533,465.534 C113.549,463.905 113.036,461.688 113.524,459.212 C110.369,458.343 107.582,457.192 105.978,456.472 L102.462,465.89 L115.119,469.628 L114.322,472.329 L98.768,467.735 L104.424,452.579 L105.827,453.286 C107.654,454.206 110.927,455.595 114.418,456.542 C115.314,454.663 116.819,452.71 119.13,450.804 C124.236,446.585 128.476,446.96 130.414,449.202 C132.06,451.108 132.135,454.69 128.412,458.05 C125.449,460.727 120.729,460.739 116.264,459.862 C115.972,461.372 116.184,462.819 116.943,464.077 C117.56,465.097 118.572,465.985 119.914,466.583 C120.759,464.077 122.729,461.761 126.17,460.454 C133.723,457.583 135.577,460.528 135.967,461.499 C136.948,463.95 134.844,467.077 131.18,468.616 C127.835,470.021 124.813,470.401 122.252,470.087 C122.283,470.599 122.371,471.099 122.512,471.573 C122.955,473.069 123.945,474.456 125.437,475.352 C126.189,473.735 127.578,472.294 129.515,471.179 C134.205,468.481 137.633,468.792 139.273,469.985 C140.362,470.778 140.85,472.024 140.574,473.323 C140.045,475.811 136.953,477.896 132.299,478.892 C130.613,479.253 129.075,479.292 127.693,479.085 C128.167,481.392 130.553,483.589 134.256,485.136 L137.754,480.06 L145.989,484.866 L144.57,487.3 L138.591,483.81 L135.325,488.546 L135.325,488.546 Z M128.109,476.296 C129.174,476.458 130.376,476.423 131.708,476.138 C136.176,475.179 137.658,473.495 137.817,472.739 C137.855,472.56 137.836,472.423 137.617,472.263 C136.951,471.78 134.697,471.442 130.92,473.62 C129.595,474.384 128.644,475.298 128.109,476.296 L128.109,476.296 Z M122.674,467.31 C124.754,467.542 127.262,467.206 130.09,466.019 C132.666,464.936 133.595,463.155 133.351,462.544 C133.154,462.052 131.322,461.511 127.171,463.085 C124.751,464.007 123.326,465.589 122.674,467.31 L122.674,467.31 Z M117.272,457.196 C120.94,457.872 124.488,457.802 126.524,455.96 C128.739,453.962 129.086,451.974 128.282,451.042 C127.268,449.87 124.347,450.147 120.924,452.976 C119.309,454.308 118.08,455.749 117.272,457.196 L117.272,457.196 Z" id="Fill-4" fill="#AAAAAA" sketch:type="MSShapeGroup"></path>
                <path d="M37.04,360.987 L36.017,360.616 C30.324,358.55 26.867,355.149 26.529,351.284 C26.512,351.067 26.502,350.853 26.504,350.638 C23.926,349.394 22.217,347.158 21.525,344.812 C21.25,343.876 21.111,342.872 21.136,341.849 C18.914,341.021 17.236,339.609 16.248,337.976 C15.264,336.347 14.751,334.13 15.239,331.653 C12.084,330.784 9.297,329.634 7.692,328.912 L4.177,338.331 L16.834,342.069 L16.037,344.771 L0.482,340.177 L6.139,325.021 L7.542,325.728 C9.369,326.648 12.642,328.035 16.133,328.982 C17.029,327.103 18.534,325.15 20.845,323.244 C25.951,319.026 30.191,319.4 32.129,321.643 C33.774,323.55 33.85,327.132 30.127,330.491 C27.164,333.169 22.443,333.181 17.979,332.303 C17.687,333.814 17.898,335.261 18.658,336.519 C19.274,337.538 20.287,338.427 21.629,339.024 C22.474,336.518 24.443,334.202 27.885,332.895 C35.438,330.024 37.292,332.969 37.682,333.94 C38.663,336.392 36.559,339.519 32.895,341.058 C29.549,342.461 26.528,342.842 23.967,342.528 C23.998,343.04 24.086,343.54 24.227,344.015 C24.67,345.511 25.66,346.898 27.151,347.794 C27.904,346.176 29.293,344.734 31.23,343.62 C35.92,340.922 39.348,341.232 40.988,342.427 C42.077,343.219 42.564,344.466 42.289,345.765 C41.76,348.253 38.668,350.336 34.014,351.333 C32.328,351.693 30.79,351.733 29.408,351.525 C29.881,353.833 32.268,356.03 35.971,357.576 L39.469,352.501 L47.704,357.307 L46.285,359.741 L40.306,356.25 L37.04,360.987 L37.04,360.987 Z M29.824,348.737 C30.889,348.899 32.091,348.864 33.423,348.579 C37.891,347.62 39.373,345.937 39.532,345.181 C39.57,345 39.551,344.864 39.332,344.704 C38.666,344.222 36.412,343.884 32.635,346.061 C31.311,346.825 30.357,347.738 29.824,348.737 L29.824,348.737 Z M24.389,339.75 C26.469,339.983 28.977,339.647 31.805,338.46 C34.381,337.378 35.31,335.597 35.065,334.985 C34.869,334.493 33.037,333.951 28.887,335.526 C26.466,336.448 25.041,338.03 24.389,339.75 L24.389,339.75 Z M18.986,329.638 C22.655,330.313 26.203,330.242 28.24,328.401 C30.454,326.402 30.801,324.415 29.998,323.483 C28.982,322.312 26.062,322.589 22.639,325.416 C21.023,326.749 19.795,328.19 18.986,329.638 L18.986,329.638 Z" id="Fill-5" fill="#AAAAAA" sketch:type="MSShapeGroup"></path>
                <path d="M440.274,297.265 L439.251,296.894 C433.559,294.827 430.102,291.428 429.764,287.563 C429.746,287.345 429.736,287.131 429.738,286.916 C427.16,285.671 425.451,283.436 424.76,281.089 C424.484,280.154 424.346,279.15 424.37,278.127 C422.148,277.298 420.471,275.888 419.482,274.253 C418.498,272.624 417.985,270.407 418.474,267.932 C415.318,267.062 412.531,265.911 410.927,265.19 L407.411,274.609 L420.068,278.347 L419.271,281.048 L403.717,276.455 L409.373,261.299 L410.776,262.006 C412.603,262.925 415.876,264.313 419.367,265.261 C420.264,263.382 421.769,261.429 424.079,259.522 C429.186,255.305 433.426,255.679 435.363,257.921 C437.009,259.827 437.084,263.409 433.361,266.769 C430.398,269.447 425.678,269.458 421.213,268.581 C420.921,270.091 421.133,271.538 421.893,272.796 C422.509,273.815 423.521,274.704 424.863,275.302 C425.708,272.796 427.678,270.481 431.119,269.173 C438.672,266.303 440.526,269.247 440.916,270.218 C441.897,272.67 439.793,275.796 436.129,277.335 C432.783,278.739 429.763,279.12 427.201,278.806 C427.232,279.317 427.32,279.818 427.461,280.292 C427.904,281.788 428.895,283.175 430.386,284.071 C431.139,282.454 432.527,281.013 434.464,279.898 C439.154,277.2 442.582,277.511 444.223,278.704 C445.312,279.497 445.799,280.744 445.523,282.042 C444.994,284.53 441.902,286.614 437.248,287.61 C435.562,287.972 434.024,288.011 432.643,287.804 C433.115,290.111 435.502,292.308 439.205,293.854 L442.703,288.778 L450.938,293.585 L449.52,296.019 L443.54,292.528 L440.274,297.265 L440.274,297.265 Z M433.059,285.015 C434.123,285.177 435.325,285.142 436.657,284.856 C441.125,283.898 442.607,282.214 442.767,281.458 C442.805,281.278 442.785,281.142 442.566,280.981 C441.9,280.499 439.646,280.162 435.869,282.339 C434.545,283.102 433.592,284.017 433.059,285.015 L433.059,285.015 Z M427.623,276.028 C429.703,276.262 432.211,275.925 435.039,274.737 C437.615,273.656 438.544,271.875 438.3,271.263 C438.103,270.771 436.271,270.229 432.121,271.805 C429.7,272.727 428.275,274.308 427.623,276.028 L427.623,276.028 Z M422.221,265.915 C425.89,266.591 429.437,266.521 431.475,264.679 C433.688,262.681 434.035,260.692 433.232,259.761 C432.217,258.589 429.296,258.866 425.873,261.694 C424.258,263.026 423.029,264.468 422.221,265.915 L422.221,265.915 Z" id="Fill-6" fill="#AAAAAA" sketch:type="MSShapeGroup"></path>
                <path d="M707.6,693.403 L706.576,693.031 C700.884,690.966 697.427,687.566 697.089,683.701 C697.071,683.483 697.062,683.27 697.063,683.055 C694.485,681.809 692.776,679.574 692.085,677.227 C691.81,676.293 691.671,675.289 691.695,674.266 C689.474,673.436 687.796,672.025 686.808,670.392 C685.823,668.763 685.311,666.545 685.799,664.07 C682.644,663.2 679.857,662.049 678.252,661.328 L674.736,670.748 L687.394,674.484 L686.597,677.186 L671.042,672.594 L676.698,657.438 L678.102,658.144 C679.929,659.063 683.201,660.451 686.692,661.398 C687.589,659.52 689.094,657.566 691.404,655.66 C696.511,651.443 700.751,651.816 702.688,654.059 C704.334,655.965 704.409,659.547 700.687,662.907 C697.724,665.586 693.003,665.597 688.538,664.719 C688.246,666.229 688.458,667.676 689.218,668.935 C689.834,669.953 690.847,670.843 692.188,671.439 C693.033,668.934 695.003,666.619 698.444,665.311 C705.997,662.441 707.852,665.385 708.241,666.355 C709.223,668.809 707.118,671.935 703.454,673.474 C700.108,674.877 697.088,675.258 694.526,674.944 C694.558,675.456 694.646,675.957 694.786,676.43 C695.229,677.926 696.22,679.312 697.711,680.21 C698.464,678.592 699.853,677.15 701.789,676.037 C706.479,673.338 709.907,673.648 711.548,674.842 C712.637,675.635 713.124,676.883 712.849,678.181 C712.319,680.669 709.228,682.752 704.573,683.749 C702.888,684.109 701.35,684.148 699.968,683.941 C700.44,686.25 702.827,688.446 706.53,689.992 L710.028,684.916 L718.264,689.723 L716.845,692.157 L710.865,688.666 L707.6,693.403 L707.6,693.403 Z M700.384,681.153 C701.448,681.315 702.65,681.279 703.982,680.995 C708.45,680.037 709.933,678.352 710.092,677.597 C710.13,677.416 710.11,677.28 709.892,677.12 C709.226,676.637 706.972,676.301 703.194,678.477 C701.87,679.241 700.917,680.154 700.384,681.153 L700.384,681.153 Z M694.948,672.166 C697.028,672.4 699.536,672.062 702.364,670.875 C704.94,669.795 705.869,668.014 705.625,667.4 C705.429,666.908 703.597,666.367 699.446,667.943 C697.025,668.865 695.601,670.446 694.948,672.166 L694.948,672.166 Z M689.546,662.053 C693.215,662.728 696.763,662.658 698.8,660.816 C701.014,658.818 701.36,656.83 700.558,655.899 C699.542,654.727 696.621,655.005 693.198,657.832 C691.583,659.165 690.354,660.606 689.546,662.053 L689.546,662.053 Z" id="Fill-7" fill="#AAAAAA" sketch:type="MSShapeGroup"></path>
                <path d="M653.035,807.403 L652.011,807.031 C646.319,804.966 642.862,801.566 642.524,797.701 C642.506,797.483 642.497,797.27 642.498,797.055 C639.92,795.809 638.211,793.574 637.52,791.227 C637.245,790.293 637.106,789.289 637.13,788.266 C634.909,787.436 633.231,786.025 632.243,784.392 C631.258,782.763 630.746,780.545 631.234,778.07 C628.079,777.2 625.292,776.049 623.687,775.328 L620.171,784.748 L632.829,788.484 L632.032,791.186 L616.477,786.594 L622.133,771.438 L623.537,772.144 C625.364,773.063 628.636,774.451 632.127,775.398 C633.024,773.52 634.529,771.566 636.839,769.66 C641.946,765.443 646.186,765.816 648.123,768.059 C649.769,769.965 649.844,773.547 646.122,776.907 C643.159,779.586 638.438,779.597 633.973,778.719 C633.681,780.229 633.893,781.676 634.653,782.935 C635.269,783.953 636.282,784.843 637.623,785.439 C638.468,782.934 640.438,780.619 643.879,779.311 C651.432,776.441 653.287,779.385 653.676,780.355 C654.658,782.809 652.553,785.935 648.889,787.474 C645.543,788.877 642.523,789.258 639.961,788.944 C639.993,789.456 640.081,789.957 640.221,790.43 C640.664,791.926 641.655,793.312 643.146,794.21 C643.899,792.592 645.288,791.15 647.224,790.037 C651.914,787.338 655.342,787.648 656.983,788.842 C658.072,789.635 658.559,790.883 658.284,792.181 C657.754,794.669 654.663,796.752 650.008,797.749 C648.323,798.109 646.785,798.148 645.403,797.941 C645.875,800.25 648.262,802.446 651.965,803.992 L655.463,798.916 L663.699,803.723 L662.28,806.157 L656.3,802.666 L653.035,807.403 L653.035,807.403 Z M645.819,795.153 C646.883,795.315 648.085,795.279 649.417,794.995 C653.885,794.037 655.368,792.352 655.527,791.597 C655.565,791.416 655.545,791.28 655.327,791.12 C654.661,790.637 652.407,790.301 648.629,792.477 C647.305,793.241 646.352,794.154 645.819,795.153 L645.819,795.153 Z M640.383,786.166 C642.463,786.4 644.971,786.062 647.799,784.875 C650.375,783.795 651.304,782.014 651.06,781.4 C650.864,780.908 649.032,780.367 644.881,781.943 C642.46,782.865 641.036,784.446 640.383,786.166 L640.383,786.166 Z M634.981,776.053 C638.65,776.728 642.198,776.658 644.235,774.816 C646.449,772.818 646.795,770.83 645.993,769.899 C644.977,768.727 642.056,769.005 638.633,771.832 C637.018,773.165 635.789,774.606 634.981,776.053 L634.981,776.053 Z" id="Fill-7" fill="#AAAAAA" sketch:type="MSShapeGroup"></path>
                <path d="M771.405,807.403 L770.381,807.031 C764.689,804.966 761.232,801.566 760.894,797.701 C760.876,797.483 760.867,797.27 760.868,797.055 C758.29,795.809 756.581,793.574 755.89,791.227 C755.615,790.293 755.476,789.289 755.5,788.266 C753.279,787.436 751.601,786.025 750.613,784.392 C749.628,782.763 749.116,780.545 749.604,778.07 C746.449,777.2 743.662,776.049 742.057,775.328 L738.541,784.748 L751.199,788.484 L750.402,791.186 L734.847,786.594 L740.503,771.438 L741.907,772.144 C743.734,773.063 747.006,774.451 750.497,775.398 C751.394,773.52 752.899,771.566 755.209,769.66 C760.316,765.443 764.556,765.816 766.493,768.059 C768.139,769.965 768.214,773.547 764.492,776.907 C761.529,779.586 756.808,779.597 752.343,778.719 C752.051,780.229 752.263,781.676 753.023,782.935 C753.639,783.953 754.652,784.843 755.993,785.439 C756.838,782.934 758.808,780.619 762.249,779.311 C769.802,776.441 771.657,779.385 772.046,780.355 C773.028,782.809 770.923,785.935 767.259,787.474 C763.913,788.877 760.893,789.258 758.331,788.944 C758.363,789.456 758.451,789.957 758.591,790.43 C759.034,791.926 760.025,793.312 761.516,794.21 C762.269,792.592 763.658,791.15 765.594,790.037 C770.284,787.338 773.712,787.648 775.353,788.842 C776.442,789.635 776.929,790.883 776.654,792.181 C776.124,794.669 773.033,796.752 768.378,797.749 C766.693,798.109 765.155,798.148 763.773,797.941 C764.245,800.25 766.632,802.446 770.335,803.992 L773.833,798.916 L782.069,803.723 L780.65,806.157 L774.67,802.666 L771.405,807.403 L771.405,807.403 Z M764.189,795.153 C765.253,795.315 766.455,795.279 767.787,794.995 C772.255,794.037 773.738,792.352 773.897,791.597 C773.935,791.416 773.915,791.28 773.697,791.12 C773.031,790.637 770.777,790.301 766.999,792.477 C765.675,793.241 764.722,794.154 764.189,795.153 L764.189,795.153 Z M758.753,786.166 C760.833,786.4 763.341,786.062 766.169,784.875 C768.745,783.795 769.674,782.014 769.43,781.4 C769.234,780.908 767.402,780.367 763.251,781.943 C760.83,782.865 759.406,784.446 758.753,786.166 L758.753,786.166 Z M753.351,776.053 C757.02,776.728 760.568,776.658 762.605,774.816 C764.819,772.818 765.165,770.83 764.363,769.899 C763.347,768.727 760.426,769.005 757.003,771.832 C755.388,773.165 754.159,774.606 753.351,776.053 L753.351,776.053 Z" id="Fill-7" fill="#AAAAAA" sketch:type="MSShapeGroup"></path>
                <path d="M707.73,256.277 L706.707,255.906 C701.015,253.84 697.558,250.44 697.22,246.575 C697.202,246.357 697.192,246.144 697.194,245.929 C694.616,244.684 692.907,242.449 692.216,240.102 C691.94,239.167 691.802,238.163 691.826,237.14 C689.604,236.31 687.927,234.9 686.938,233.266 C685.954,231.637 685.441,229.42 685.93,226.944 C682.774,226.074 679.987,224.924 678.383,224.203 L674.867,233.622 L687.524,237.359 L686.728,240.06 L671.173,235.468 L676.829,220.312 L678.232,221.019 C680.06,221.938 683.332,223.326 686.823,224.273 C687.72,222.394 689.225,220.441 691.535,218.535 C696.642,214.317 700.882,214.691 702.819,216.934 C704.465,218.84 704.54,222.422 700.817,225.781 C697.854,228.46 693.134,228.471 688.669,227.594 C688.377,229.104 688.589,230.551 689.349,231.809 C689.965,232.828 690.978,233.717 692.319,234.315 C693.164,231.809 695.134,229.493 698.575,228.185 C706.128,225.315 707.982,228.26 708.372,229.231 C709.354,231.683 707.249,234.809 703.585,236.348 C700.239,237.752 697.219,238.133 694.657,237.818 C694.688,238.33 694.776,238.831 694.917,239.305 C695.36,240.801 696.351,242.187 697.842,243.084 C698.595,241.467 699.983,240.025 701.92,238.911 C706.61,236.213 710.038,236.523 711.679,237.717 C712.768,238.51 713.255,239.757 712.98,241.055 C712.45,243.543 709.358,245.627 704.704,246.623 C703.019,246.984 701.481,247.023 700.099,246.816 C700.571,249.124 702.958,251.32 706.661,252.867 L710.159,247.791 L718.395,252.598 L716.976,255.031 L710.996,251.541 L707.73,256.277 L707.73,256.277 Z M700.515,244.027 C701.579,244.19 702.781,244.154 704.113,243.869 C708.581,242.911 710.063,241.227 710.223,240.471 C710.261,240.291 710.241,240.154 710.022,239.994 C709.356,239.512 707.103,239.175 703.325,241.352 C702.001,242.115 701.048,243.029 700.515,244.027 L700.515,244.027 Z M695.079,235.041 C697.159,235.274 699.667,234.938 702.495,233.75 C705.071,232.669 706,230.888 705.756,230.275 C705.56,229.783 703.728,229.242 699.577,230.817 C697.156,231.739 695.731,233.32 695.079,235.041 L695.079,235.041 Z M689.677,224.928 C693.346,225.604 696.894,225.533 698.931,223.691 C701.145,221.693 701.491,219.705 700.688,218.773 C699.673,217.602 696.752,217.879 693.329,220.707 C691.714,222.039 690.485,223.481 689.677,224.928 L689.677,224.928 Z" id="Fill-8" fill="#AAAAAA" sketch:type="MSShapeGroup"></path>
                <path d="M709.109,143.059 L708.086,142.687 C702.394,140.621 698.937,137.221 698.599,133.355 C698.581,133.139 698.571,132.924 698.573,132.709 C695.995,131.465 694.286,129.229 693.595,126.883 C693.319,125.947 693.181,124.943 693.205,123.92 C690.983,123.092 689.306,121.681 688.317,120.047 C687.333,118.418 686.82,116.201 687.309,113.725 C684.153,112.856 681.366,111.705 679.762,110.983 L676.246,120.402 L688.903,124.141 L688.107,126.842 L672.552,122.248 L678.208,107.092 L679.611,107.799 C681.439,108.719 684.711,110.106 688.202,111.054 C689.099,109.175 690.604,107.222 692.914,105.315 C698.021,101.098 702.261,101.472 704.198,103.714 C705.844,105.621 705.919,109.203 702.196,112.563 C699.233,115.24 694.513,115.252 690.048,114.374 C689.756,115.885 689.968,117.332 690.728,118.59 C691.344,119.609 692.356,120.498 693.698,121.096 C694.543,118.589 696.513,116.273 699.954,114.966 C707.507,112.096 709.361,115.04 709.751,116.012 C710.732,118.463 708.628,121.59 704.964,123.129 C701.618,124.532 698.598,124.913 696.036,124.6 C696.067,125.111 696.155,125.611 696.296,126.086 C696.739,127.582 697.729,128.969 699.221,129.865 C699.974,128.247 701.362,126.806 703.299,125.691 C707.989,122.993 711.417,123.304 713.058,124.498 C714.146,125.29 714.634,126.537 714.358,127.836 C713.829,130.324 710.737,132.407 706.083,133.404 C704.397,133.765 702.859,133.805 701.478,133.597 C701.95,135.904 704.337,138.102 708.04,139.648 L711.538,134.572 L719.773,139.378 L718.354,141.813 L712.375,138.321 L709.109,143.059 L709.109,143.059 Z M701.894,130.809 C702.958,130.971 704.16,130.935 705.492,130.65 C709.96,129.691 711.442,128.008 711.602,127.252 C711.64,127.071 711.62,126.935 711.401,126.775 C710.735,126.293 708.481,125.955 704.704,128.133 C703.38,128.896 702.427,129.81 701.894,130.809 L701.894,130.809 Z M696.458,121.821 C698.538,122.055 701.046,121.718 703.874,120.531 C706.45,119.449 707.379,117.668 707.135,117.057 C706.939,116.565 705.106,116.023 700.956,117.598 C698.535,118.519 697.11,120.102 696.458,121.821 L696.458,121.821 Z M691.056,111.709 C694.725,112.384 698.273,112.313 700.31,110.473 C702.523,108.474 702.87,106.486 702.067,105.555 C701.052,104.383 698.131,104.66 694.708,107.487 C693.093,108.82 691.864,110.262 691.056,111.709 L691.056,111.709 Z" id="Fill-9" fill="#AAAAAA" sketch:type="MSShapeGroup"></path>
                <path d="M785.859,183.717 L784.836,183.345 C779.144,181.279 775.687,177.879 775.349,174.014 C775.331,173.797 775.321,173.582 775.323,173.367 C772.745,172.122 771.036,169.887 770.345,167.541 C770.069,166.606 769.931,165.602 769.955,164.578 C767.733,163.75 766.056,162.338 765.067,160.705 C764.083,159.076 763.57,156.858 764.059,154.383 C760.903,153.514 758.116,152.362 756.512,151.641 L752.996,161.06 L765.653,164.798 L764.856,167.5 L749.302,162.906 L754.958,147.75 L756.361,148.457 C758.188,149.376 761.461,150.764 764.952,151.711 C765.849,149.832 767.354,147.879 769.664,145.973 C774.771,141.756 779.011,142.129 780.948,144.371 C782.594,146.278 782.669,149.86 778.946,153.221 C775.983,155.898 771.263,155.91 766.798,155.031 C766.506,156.542 766.718,157.989 767.478,159.248 C768.094,160.267 769.107,161.156 770.448,161.753 C771.293,159.246 773.263,156.932 776.704,155.623 C784.257,152.754 786.111,155.697 786.501,156.669 C787.482,159.121 785.378,162.248 781.714,163.787 C778.368,165.189 775.348,165.57 772.786,165.258 C772.817,165.769 772.905,166.269 773.046,166.743 C773.489,168.239 774.48,169.626 775.971,170.523 C776.724,168.904 778.112,167.463 780.049,166.35 C784.739,163.65 788.167,163.961 789.808,165.155 C790.896,165.947 791.384,167.195 791.108,168.494 C790.579,170.982 787.487,173.064 782.833,174.063 C781.148,174.422 779.609,174.462 778.228,174.254 C778.7,176.562 781.087,178.76 784.79,180.305 L788.288,175.229 L796.523,180.035 L795.105,182.471 L789.125,178.979 L785.859,183.717 L785.859,183.717 Z M778.644,171.467 C779.708,171.629 780.91,171.593 782.242,171.309 C786.71,170.35 788.192,168.666 788.352,167.91 C788.39,167.729 788.37,167.594 788.151,167.434 C787.485,166.95 785.232,166.613 781.454,168.791 C780.13,169.555 779.177,170.467 778.644,171.467 L778.644,171.467 Z M773.208,162.479 C775.288,162.713 777.796,162.375 780.624,161.188 C783.2,160.107 784.129,158.326 783.885,157.714 C783.688,157.222 781.857,156.68 777.706,158.256 C775.285,159.178 773.86,160.76 773.208,162.479 L773.208,162.479 Z M767.806,152.366 C771.475,153.041 775.022,152.971 777.06,151.13 C779.273,149.131 779.62,147.144 778.817,146.213 C777.802,145.041 774.881,145.318 771.458,148.144 C769.843,149.479 768.614,150.92 767.806,152.366 L767.806,152.366 Z" id="Fill-10" fill="#AAAAAA" sketch:type="MSShapeGroup"></path>
                <path d="M767.593,80.816 L766.569,80.445 C760.877,78.379 757.42,74.979 757.082,71.114 C757.064,70.896 757.055,70.683 757.057,70.468 C754.479,69.223 752.77,66.988 752.078,64.641 C751.803,63.706 751.664,62.702 751.688,61.679 C749.467,60.85 747.789,59.44 746.801,57.805 C745.816,56.176 745.304,53.959 745.792,51.483 C742.637,50.613 739.85,49.463 738.245,48.742 L734.73,58.161 L747.387,61.898 L746.59,64.6 L731.035,60.007 L736.691,44.851 L738.095,45.558 C739.922,46.477 743.194,47.865 746.686,48.813 C747.582,46.934 749.087,44.981 751.397,43.074 C756.504,38.856 760.744,39.231 762.682,41.473 C764.327,43.379 764.402,46.961 760.68,50.32 C757.717,52.999 752.996,53.01 748.531,52.133 C748.239,53.643 748.451,55.09 749.211,56.348 C749.827,57.367 750.84,58.256 752.182,58.854 C753.026,56.348 754.996,54.032 758.437,52.725 C765.99,49.854 767.845,52.799 768.234,53.769 C769.216,56.222 767.111,59.348 763.447,60.887 C760.102,62.291 757.081,62.672 754.52,62.357 C754.551,62.869 754.639,63.37 754.779,63.844 C755.223,65.34 756.213,66.727 757.704,67.623 C758.457,66.006 759.846,64.564 761.782,63.45 C766.473,60.752 769.9,61.063 771.541,62.256 C772.63,63.049 773.117,64.296 772.842,65.594 C772.312,68.082 769.221,70.166 764.566,71.162 C762.881,71.523 761.343,71.563 759.961,71.355 C760.434,73.663 762.82,75.859 766.523,77.406 L770.021,72.33 L778.257,77.137 L776.838,79.57 L770.858,76.08 L767.593,80.816 L767.593,80.816 Z M760.377,68.566 C761.441,68.729 762.644,68.693 763.976,68.408 C768.443,67.45 769.926,65.766 770.085,65.01 C770.123,64.83 770.104,64.693 769.885,64.533 C769.219,64.051 766.965,63.714 763.187,65.891 C761.863,66.654 760.91,67.568 760.377,68.566 L760.377,68.566 Z M754.941,59.58 C757.022,59.813 759.529,59.477 762.357,58.289 C764.934,57.208 765.862,55.427 765.618,54.814 C765.422,54.322 763.59,53.781 759.439,55.356 C757.019,56.278 755.594,57.859 754.941,59.58 L754.941,59.58 Z M749.539,49.467 C753.208,50.143 756.756,50.072 758.793,48.231 C761.007,46.232 761.354,44.244 760.551,43.312 C759.535,42.141 756.614,42.418 753.191,45.246 C751.576,46.578 750.348,48.019 749.539,49.467 L749.539,49.467 Z" id="Fill-11" fill="#AAAAAA" sketch:type="MSShapeGroup"></path>
                <path d="M205.329,413.321 L204.306,412.95 C198.613,410.884 195.156,407.483 194.818,403.618 C194.801,403.401 194.791,403.186 194.793,402.972 C192.215,401.728 190.506,399.492 189.814,397.146 C189.539,396.21 189.4,395.206 189.425,394.183 C187.203,393.354 185.525,391.943 184.537,390.31 C183.553,388.681 183.04,386.464 183.528,383.987 C180.373,383.118 177.586,381.968 175.982,381.246 L172.466,390.665 L185.123,394.403 L184.326,397.104 L168.772,392.511 L174.428,377.354 L175.831,378.061 C177.658,378.981 180.931,380.369 184.422,381.316 C185.318,379.438 186.823,377.484 189.134,375.578 C194.24,371.36 198.48,371.734 200.418,373.977 C202.063,375.884 202.139,379.466 198.416,382.825 C195.453,385.503 190.732,385.515 186.268,384.637 C185.976,386.147 186.188,387.595 186.947,388.853 C187.564,389.872 188.576,390.761 189.918,391.358 C190.763,388.852 192.732,386.536 196.174,385.228 C203.727,382.358 205.581,385.303 205.971,386.274 C206.952,388.726 204.848,391.853 201.184,393.392 C197.838,394.795 194.817,395.176 192.256,394.862 C192.287,395.374 192.375,395.874 192.516,396.349 C192.959,397.845 193.949,399.231 195.441,400.128 C196.193,398.51 197.582,397.068 199.519,395.954 C204.209,393.256 207.637,393.566 209.277,394.761 C210.366,395.553 210.854,396.8 210.578,398.099 C210.049,400.587 206.957,402.67 202.303,403.667 C200.617,404.027 199.079,404.067 197.697,403.859 C198.17,406.167 200.557,408.364 204.26,409.91 L207.758,404.835 L215.993,409.641 L214.574,412.075 L208.595,408.584 L205.329,413.321 L205.329,413.321 Z M198.113,401.071 C199.178,401.233 200.38,401.198 201.712,400.913 C206.18,399.954 207.662,398.271 207.821,397.515 C207.859,397.334 207.84,397.198 207.621,397.038 C206.955,396.556 204.701,396.218 200.924,398.395 C199.6,399.159 198.647,400.072 198.113,401.071 L198.113,401.071 Z M192.678,392.084 C194.758,392.317 197.266,391.98 200.094,390.794 C202.67,389.712 203.599,387.931 203.355,387.319 C203.158,386.827 201.326,386.285 197.176,387.86 C194.755,388.782 193.33,390.364 192.678,392.084 L192.678,392.084 Z M187.275,381.972 C190.944,382.647 194.492,382.576 196.529,380.735 C198.743,378.736 199.09,376.749 198.287,375.817 C197.272,374.646 194.351,374.923 190.928,377.75 C189.313,379.083 188.084,380.524 187.275,381.972 L187.275,381.972 Z" id="Fill-12" fill="#AAAAAA" sketch:type="MSShapeGroup"></path>
                <path d="M264.679,488.309 L263.655,487.938 C257.963,485.871 254.506,482.471 254.168,478.605 C254.15,478.389 254.141,478.174 254.143,477.959 C251.565,476.715 249.855,474.479 249.164,472.133 C248.889,471.197 248.75,470.193 248.774,469.17 C246.553,468.342 244.875,466.931 243.887,465.297 C242.902,463.668 242.39,461.451 242.878,458.975 C239.723,458.105 236.936,456.955 235.331,456.233 L231.816,465.652 L244.473,469.391 L243.676,472.092 L228.121,467.498 L233.777,452.342 L235.181,453.049 C237.008,453.969 240.28,455.356 243.772,456.304 C244.668,454.425 246.173,452.472 248.483,450.565 C253.59,446.348 257.83,446.722 259.768,448.964 C261.413,450.871 261.488,454.453 257.766,457.812 C254.803,460.49 250.082,460.502 245.617,459.624 C245.325,461.135 245.537,462.582 246.297,463.84 C246.913,464.859 247.926,465.748 249.268,466.346 C250.112,463.839 252.082,461.523 255.523,460.216 C263.076,457.346 264.931,460.29 265.32,461.262 C266.302,463.713 264.197,466.84 260.533,468.379 C257.188,469.782 254.167,470.163 251.606,469.85 C251.637,470.361 251.725,470.861 251.865,471.336 C252.309,472.832 253.299,474.219 254.79,475.115 C255.543,473.497 256.932,472.056 258.868,470.941 C263.559,468.243 266.986,468.554 268.627,469.748 C269.716,470.54 270.203,471.787 269.928,473.086 C269.398,475.574 266.307,477.657 261.652,478.654 C259.967,479.015 258.429,479.055 257.047,478.847 C257.52,481.154 259.906,483.352 263.609,484.897 L267.107,479.822 L275.343,484.628 L273.924,487.063 L267.944,483.571 L264.679,488.309 L264.679,488.309 Z M257.463,476.059 C258.527,476.221 259.73,476.185 261.062,475.9 C265.529,474.941 267.012,473.258 267.171,472.502 C267.209,472.321 267.19,472.185 266.971,472.025 C266.305,471.543 264.051,471.205 260.273,473.383 C258.949,474.147 257.996,475.06 257.463,476.059 L257.463,476.059 Z M252.027,467.071 C254.107,467.305 256.615,466.968 259.443,465.781 C262.02,464.699 262.948,462.918 262.704,462.307 C262.508,461.815 260.676,461.272 256.525,462.848 C254.105,463.77 252.68,465.352 252.027,467.071 L252.027,467.071 Z M246.625,456.959 C250.294,457.634 253.842,457.563 255.879,455.723 C258.093,453.724 258.439,451.736 257.637,450.805 C256.621,449.633 253.7,449.91 250.277,452.737 C248.662,454.07 247.434,455.512 246.625,456.959 L246.625,456.959 Z" id="Fill-13" fill="#AAAAAA" sketch:type="MSShapeGroup"></path>
                <path d="M218.396,578.763 L217.373,578.392 C211.681,576.325 208.224,572.925 207.886,569.06 C207.868,568.843 207.858,568.628 207.86,568.413 C205.282,567.169 203.573,564.934 202.882,562.587 C202.607,561.651 202.468,560.648 202.492,559.624 C200.271,558.796 198.593,557.385 197.604,555.751 C196.62,554.122 196.107,551.905 196.596,549.429 C193.44,548.56 190.653,547.409 189.049,546.688 L185.533,556.106 L198.19,559.845 L197.394,562.546 L181.839,557.952 L187.495,542.796 L188.899,543.503 C190.726,544.423 193.998,545.81 197.489,546.758 C198.386,544.879 199.891,542.926 202.201,541.02 C207.308,536.802 211.548,537.176 213.485,539.418 C215.131,541.325 215.206,544.907 211.483,548.267 C208.521,550.944 203.8,550.956 199.335,550.078 C199.043,551.589 199.255,553.036 200.015,554.294 C200.631,555.314 201.644,556.202 202.985,556.8 C203.83,554.293 205.8,551.977 209.241,550.67 C216.794,547.8 218.648,550.744 219.038,551.716 C220.02,554.167 217.915,557.294 214.251,558.833 C210.905,560.236 207.885,560.617 205.323,560.304 C205.355,560.815 205.442,561.315 205.583,561.79 C206.026,563.286 207.017,564.673 208.508,565.569 C209.261,563.951 210.649,562.51 212.586,561.396 C217.276,558.697 220.704,559.008 222.345,560.202 C223.434,560.994 223.921,562.241 223.646,563.54 C223.116,566.028 220.024,568.111 215.37,569.108 C213.685,569.469 212.147,569.509 210.765,569.301 C211.237,571.608 213.624,573.806 217.327,575.352 L220.825,570.276 L229.061,575.082 L227.642,577.517 L221.662,574.025 L218.396,578.763 L218.396,578.763 Z M211.181,566.513 C212.245,566.675 213.447,566.64 214.779,566.354 C219.247,565.396 220.73,563.712 220.889,562.956 C220.927,562.775 220.907,562.64 220.689,562.479 C220.022,561.997 217.769,561.659 213.991,563.837 C212.667,564.601 211.714,565.514 211.181,566.513 L211.181,566.513 Z M205.745,557.525 C207.825,557.759 210.333,557.422 213.161,556.235 C215.737,555.153 216.666,553.372 216.422,552.761 C216.226,552.269 214.394,551.727 210.243,553.302 C207.822,554.224 206.398,555.806 205.745,557.525 L205.745,557.525 Z M200.343,547.413 C204.012,548.088 207.56,548.018 209.597,546.177 C211.811,544.178 212.157,542.19 211.355,541.259 C210.339,540.087 207.418,540.364 203.995,543.191 C202.38,544.524 201.151,545.966 200.343,547.413 L200.343,547.413 Z" id="Fill-14" fill="#AAAAAA" sketch:type="MSShapeGroup"></path>
                <path d="M711.599,563.479 C709.811,560.995 708.609,563.565 705.113,564.476 C702.148,565.247 701.889,560.011 698.825,560.011 C695.763,560.011 695.763,564.495 692.698,564.495 C689.639,564.495 687.84,560.995 686.054,563.479 L696.585,578.644 L696.585,594.169 C696.585,595.407 697.589,596.41 698.827,596.41 C700.065,596.41 701.068,595.407 701.068,594.169 L701.068,578.644 L711.599,563.479" id="Fill-15" fill="#FEB6B2" sketch:type="MSShapeGroup"></path>
                <path d="M110.749,442.369 L42.241,362.145 L40.72,363.443 L109.229,443.669 L95.815,442.247 L95.604,444.235 L112.563,446.033 L113.443,429.003 L111.445,428.899 L110.749,442.369" id="Fill-16" fill="#AAAAAA" sketch:type="MSShapeGroup"></path>
                <path d="M219.598,468.397 L149.254,468.397 L149.254,470.397 L219.598,470.397 L219.598,480.147 L221.35,480.147 L221.35,458.647 L219.598,458.647 L219.598,468.397" id="Fill-17" fill="#AAAAAA" sketch:type="MSShapeGroup"></path>
                <path d="M176.899,422.498 L185.064,414.333 L184.506,427.995 L186.504,428.077 L187.212,410.772 L169.904,411.478 L169.986,413.476 L183.65,412.918 L141.213,455.355 L142.627,456.769 L176.899,422.498" id="Fill-18" fill="#AAAAAA" sketch:type="MSShapeGroup"></path>
                <path d="M189.593,519.194 L189.838,532.566 L149.293,492.022 L147.879,493.436 L188.424,533.98 L175.052,533.735 L175.015,535.735 L191.901,536.044 L191.593,519.157 L189.593,519.194" id="Fill-19" fill="#AAAAAA" sketch:type="MSShapeGroup"></path>
                <path d="M404.192,292.556 L404.333,294.551 L417.722,293.602 L269.183,457.391 L270.665,458.734 L419.204,294.947 L419.563,308.363 L421.562,308.31 L421.108,291.358 L404.192,292.556" id="Fill-20" fill="#AAAAAA" sketch:type="MSShapeGroup"></path>
                <path d="M685.827,548.909 L452.438,305.901 L450.995,307.287 L684.385,550.294 L671.391,550.196 L671.375,552.196 L687.717,552.32 L688.253,535.986 L686.255,535.92 L685.827,548.909" id="Fill-21" fill="#AAAAAA" sketch:type="MSShapeGroup"></path>
                <path d="M473.905,272.681 L495.883,267.929 L539.839,258.426 L660.152,232.414 L652.971,243.474 L654.648,244.563 L663.699,230.624 L649.699,221.668 L648.621,223.352 L659.73,230.459 L561.395,251.719 L539.417,256.471 L495.461,265.974 L473.483,270.726 L451.506,275.478 L451.928,277.433 L473.905,272.681" id="Fill-22" fill="#AAAAAA" sketch:type="MSShapeGroup"></path>
                <path d="M680.952,155.688 L682.45,157.013 L691.704,146.546 L691.704,209.133 L693.704,209.133 L693.704,146.546 L702.957,157.013 L704.455,155.688 L692.704,142.396 L680.952,155.688" id="Fill-23" fill="#AAAAAA" sketch:type="MSShapeGroup"></path>
                <path d="M663.54,708.128 L672.794,697.661 L672.794,760.248 L674.794,760.248 L674.794,697.661 L684.047,708.128 L685.545,706.803 L673.794,693.511 L662.042,706.803 L663.54,708.128 Z" id="Fill-23" fill="#AAAAAA" sketch:type="MSShapeGroup" transform="translate(673.793500, 726.879500) rotate(-143.000000) translate(-673.793500, -726.879500) "></path>
                <path d="M719.54,711.128 L728.794,700.661 L728.794,763.248 L730.794,763.248 L730.794,700.661 L740.047,711.128 L741.545,709.803 L729.794,696.511 L718.042,709.803 L719.54,711.128 Z" id="Fill-27" fill="#AAAAAA" sketch:type="MSShapeGroup" transform="translate(729.793500, 729.879500) scale(-1, 1) rotate(-150.000000) translate(-729.793500, -729.879500) "></path>
                <path d="M728.029,98.566 L747.355,77.483 L754.543,84.072 L755.727,82.78 L739.878,68.252 L738.694,69.544 L745.881,76.132 L713.967,110.947 L715.441,112.299 L728.029,98.566" id="Fill-24" fill="#AAAAAA" sketch:type="MSShapeGroup"></path>
                <path d="M768.004,175.909 L718.183,224.753 L711.357,217.792 L710.106,219.018 L725.156,234.371 L726.408,233.144 L719.583,226.182 L769.404,177.337 L768.004,175.909" id="Fill-25" fill="#AAAAAA" sketch:type="MSShapeGroup"></path>
                <path d="M707.971,628.115 L698.704,638.201 L698.704,602.307 L696.704,602.307 L696.704,638.2 L687.439,628.115 L685.966,629.469 L697.704,642.246 L709.443,629.469 L707.971,628.115" id="Fill-26" fill="#AAAAAA" sketch:type="MSShapeGroup"></path>
            </g>
        </g>
    </g>
</svg>