<?xml version="1.0" encoding="UTF-8" standalone="no"?>
<svg width="450px" height="450px" viewBox="0 0 450 450" version="1.1" xmlns="http://www.w3.org/2000/svg" xmlns:xlink="http://www.w3.org/1999/xlink" xmlns:sketch="http://www.bohemiancoding.com/sketch/ns">
    <!-- Generator: Sketch 3.2.2 (9983) - http://www.bohemiancoding.com/sketch -->
    <title>BMA-logo-big</title>
    <desc>Created with Sketch.</desc>
    <defs>
        <radialGradient cx="50%" cy="50%" fx="50%" fy="50%" r="50%" id="radialGradient-1">
            <stop stop-color="#81BB83" offset="0%"></stop>
            <stop stop-color="#81BB83" offset="73.2048234%"></stop>
            <stop stop-color="#FFFFFF" offset="100%"></stop>
        </radialGradient>
        <filter x="-50%" y="-50%" width="200%" height="200%" filterUnits="objectBoundingBox" id="filter-2">
            <feOffset dx="2" dy="5" in="SourceAlpha" result="shadowOffsetOuter1"></feOffset>
            <feGaussianBlur stdDeviation="5" in="shadowOffsetOuter1" result="shadowBlurOuter1"></feGaussianBlur>
            <feColorMatrix values="0 0 0 0 0   0 0 0 0 0   0 0 0 0 0  0 0 0 0.35 0" in="shadowBlurOuter1" type="matrix" result="shadowMatrixOuter1"></feColorMatrix>
            <feMerge>
                <feMergeNode in="shadowMatrixOuter1"></feMergeNode>
                <feMergeNode in="SourceGraphic"></feMergeNode>
            </feMerge>
        </filter>
        <radialGradient cx="50%" cy="50%" fx="50%" fy="50%" r="50%" id="radialGradient-3">
            <stop stop-color="#81BB83" offset="0%"></stop>
            <stop stop-color="#81BB83" offset="71.171875%"></stop>
            <stop stop-color="#FFFFFF" offset="100%"></stop>
        </radialGradient>
        <radialGradient cx="50%" cy="50%" fx="50%" fy="50%" r="50%" id="radialGradient-4">
            <stop stop-color="#FEB6B2" offset="0%"></stop>
            <stop stop-color="#FEB6B2" offset="71.0592831%"></stop>
            <stop stop-color="#FFFFFF" offset="100%"></stop>
        </radialGradient>
    </defs>
    <g id="Logos" stroke="none" stroke-width="1" fill="none" fill-rule="evenodd" sketch:type="MSPage">
        <g id="BMA-logo-big" sketch:type="MSArtboardGroup">
            <g id="Circles" sketch:type="MSLayerGroup" transform="translate(13.005901, 11.005901)">
                <path d="M212.494099,424.988198 C329.851349,424.988198 424.988198,329.851349 424.988198,212.494099 C424.988198,95.1368487 329.851349,0 212.494099,0 C95.1368487,0 0,95.1368487 0,212.494099 C0,329.851349 95.1368487,424.988198 212.494099,424.988198 Z" id="Oval-3" fill="url(#radialGradient-1)" filter="url(#filter-2)" sketch:type="MSShapeGroup"></path>
                <path d="M212.494099,397.271576 C314.543882,397.271576 397.271576,314.543882 397.271576,212.494099 C397.271576,110.444316 314.543882,27.7166216 212.494099,27.7166216 C110.444316,27.7166216 27.7166216,110.444316 27.7166216,212.494099 C27.7166216,314.543882 110.444316,397.271576 212.494099,397.271576 Z" id="Oval-3" fill="url(#radialGradient-3)" sketch:type="MSShapeGroup"></path>
                <circle id="Oval-1" fill="#D8D8D8" sketch:type="MSShapeGroup" cx="212.494099" cy="212.494099" r="157.060856"></circle>
                <path d="M212.494099,369.554955 C299.236414,369.554955 369.554955,299.236414 369.554955,212.494099 C369.554955,125.751784 299.236414,55.4332432 212.494099,55.4332432 C125.751784,55.4332432 55.4332432,125.751784 55.4332432,212.494099 C55.4332432,299.236414 125.751784,369.554955 212.494099,369.554955 Z" id="Oval-3" fill="url(#radialGradient-4)" sketch:type="MSShapeGroup"></path>
                <circle id="Oval-2" fill="#FFFFFF" sketch:type="MSShapeGroup" cx="212.494099" cy="214.341874" r="129.344234"></circle>
            </g>
            <path d="M135.139953,235.759946 L135.139953,164.600768 L153.847771,164.600768 C159.43864,164.600768 163.888112,166.10598 167.196319,169.116448 C170.504526,172.126916 172.158605,176.113246 172.158605,181.075557 C172.158605,185.210816 171.058643,188.791896 168.858685,191.818905 C166.658727,194.845915 163.590411,196.987947 159.653645,198.245066 L159.653645,198.443557 C164.582873,198.906706 168.469958,200.6683 171.315016,203.728391 C174.160075,206.788483 175.582582,210.683838 175.582582,215.414574 C175.582582,221.402429 173.64731,226.290232 169.776708,230.078129 C165.906106,233.866026 160.728839,235.759946 154.244753,235.759946 L135.139953,235.759946 Z M140.052616,169.116448 L140.052616,196.657134 L149.977188,196.657134 C155.137991,196.657134 159.273187,195.333871 162.382902,192.687305 C165.492617,190.04074 167.047451,186.451389 167.047451,181.919145 C167.047451,173.383971 162.002511,169.116448 151.912479,169.116448 L140.052616,169.116448 Z M140.052616,201.123191 L140.052616,231.293889 L153.252296,231.293889 C158.843166,231.293889 163.11896,229.954085 166.079805,227.274437 C169.04065,224.59479 170.521051,220.790409 170.521051,215.86118 C170.521051,206.035805 163.855114,201.123191 150.523039,201.123191 L140.052616,201.123191 Z M252.101029,235.759946 L252.101029,185.243877 C252.101029,184.01984 252.282977,180.529734 252.64688,174.773454 L252.448389,174.773454 C251.422845,177.453102 250.562724,179.5207 249.868,180.976311 L224.560343,235.759946 L222.972411,235.759946 L197.565508,181.274048 C196.738456,179.520698 195.961039,177.287692 195.233234,174.574962 L194.98512,174.574962 C195.216694,177.750841 195.33248,180.910132 195.33248,184.052928 L195.33248,235.759946 L190.419817,235.759946 L190.419817,164.600768 L194.98512,164.600768 L221.533348,221.915169 C221.698759,222.245989 221.880707,222.692591 222.0792,223.254986 C222.277692,223.817381 222.492723,224.379768 222.724297,224.942163 C223.055118,225.802297 223.402474,226.761662 223.766377,227.820289 L224.064114,227.820289 L224.609966,226.232357 C224.643048,226.100029 225.205434,224.528654 226.297143,221.518186 L252.448389,164.600768 L256.8152,164.600768 L256.8152,235.759946 L252.101029,235.759946 Z M321.424161,235.759946 L313.286012,213.628151 L282.420595,213.628151 L274.282446,235.759946 L268.873555,235.759946 L295.719521,164.600768 L300.384069,164.600768 L326.932298,235.759946 L321.424161,235.759946 Z M299.590104,176.212517 C299.226201,175.220055 298.928467,174.244148 298.696892,173.284768 C298.465318,172.457716 298.217206,171.630677 297.952549,170.803625 L297.754058,170.803625 C297.191663,172.987042 296.645817,174.756906 296.116504,176.113271 L284.157395,209.112471 L311.598835,209.112471 L299.590104,176.212517 Z" id="BMA" fill="#81BB83" sketch:type="MSShapeGroup"></path>
            <path d="M160.40625,285 L160.40625,262.59375 L166.296875,262.59375 C168.0573,262.59375 169.458328,263.067704 170.5,264.015625 C171.541672,264.963546 172.0625,266.218742 172.0625,267.78125 C172.0625,269.08334 171.716149,270.210933 171.023438,271.164062 C170.330726,272.117192 169.36459,272.791665 168.125,273.1875 L168.125,273.25 C169.677091,273.395834 170.901037,273.950516 171.796875,274.914062 C172.692713,275.877609 173.140625,277.104159 173.140625,278.59375 C173.140625,280.479176 172.531256,282.018223 171.3125,283.210938 C170.093744,284.403652 168.463552,285 166.421875,285 L160.40625,285 Z M161.953125,264.015625 L161.953125,272.6875 L165.078125,272.6875 C166.703133,272.6875 168.005203,272.270837 168.984375,271.4375 C169.963547,270.604163 170.453125,269.473965 170.453125,268.046875 C170.453125,265.359362 168.864599,264.015625 165.6875,264.015625 L161.953125,264.015625 Z M161.953125,274.09375 L161.953125,283.59375 L166.109375,283.59375 C167.8698,283.59375 169.216141,283.171879 170.148438,282.328125 C171.080734,281.484371 171.546875,280.286466 171.546875,278.734375 C171.546875,275.64061 169.447938,274.09375 165.25,274.09375 L161.953125,274.09375 Z M178.203125,264.96875 C177.890623,264.96875 177.614585,264.854168 177.375,264.625 C177.135415,264.395832 177.015625,264.104168 177.015625,263.75 C177.015625,263.406248 177.13802,263.127605 177.382812,262.914062 C177.627605,262.70052 177.90104,262.59375 178.203125,262.59375 C178.526043,262.59375 178.809895,262.697916 179.054688,262.90625 C179.29948,263.114584 179.421875,263.395832 179.421875,263.75 C179.421875,264.083335 179.302085,264.36979 179.0625,264.609375 C178.822915,264.84896 178.53646,264.96875 178.203125,264.96875 L178.203125,264.96875 Z M177.5,285 L177.5,269 L178.9375,269 L178.9375,285 L177.5,285 Z M190.484375,285.390625 C188.15103,285.390625 186.304694,284.622404 184.945312,283.085938 C183.585931,281.549471 182.90625,279.552096 182.90625,277.09375 C182.90625,274.437487 183.61718,272.359382 185.039062,270.859375 C186.460945,269.359368 188.333322,268.609375 190.65625,268.609375 C192.937511,268.609375 194.739577,269.354159 196.0625,270.84375 C197.385423,272.333341 198.046875,274.39582 198.046875,277.03125 C198.046875,279.520846 197.372403,281.536451 196.023438,283.078125 C194.674472,284.619799 192.828137,285.390625 190.484375,285.390625 L190.484375,285.390625 Z M190.59375,269.921875 C188.708324,269.921875 187.205735,270.557285 186.085938,271.828125 C184.96614,273.098965 184.40625,274.864572 184.40625,277.125 C184.40625,279.21876 184.95312,280.901035 186.046875,282.171875 C187.14063,283.442715 188.635407,284.078125 190.53125,284.078125 C192.458343,284.078125 193.942703,283.453131 194.984375,282.203125 C196.026047,280.953119 196.546875,279.218761 196.546875,277 C196.546875,274.718739 196.028651,272.968756 194.992188,271.75 C193.955724,270.531244 192.489593,269.921875 190.59375,269.921875 L190.59375,269.921875 Z M230.515625,285 L230.515625,269.09375 C230.515625,268.708331 230.572916,267.609384 230.6875,265.796875 L230.625,265.796875 C230.302082,266.640629 230.031251,267.291664 229.8125,267.75 L221.84375,285 L221.34375,285 L213.34375,267.84375 C213.083332,267.291664 212.838543,266.588546 212.609375,265.734375 L212.53125,265.734375 C212.604167,266.73438 212.640625,267.729162 212.640625,268.71875 L212.640625,285 L211.09375,285 L211.09375,262.59375 L212.53125,262.59375 L220.890625,280.640625 C220.942709,280.744792 221,280.885416 221.0625,281.0625 C221.125,281.239584 221.192708,281.416666 221.265625,281.59375 C221.369792,281.864585 221.479166,282.166665 221.59375,282.5 L221.6875,282.5 L221.859375,282 C221.869792,281.958333 222.046873,281.463546 222.390625,280.515625 L230.625,262.59375 L232,262.59375 L232,285 L230.515625,285 Z M243.859375,285.390625 C241.52603,285.390625 239.679694,284.622404 238.320312,283.085938 C236.960931,281.549471 236.28125,279.552096 236.28125,277.09375 C236.28125,274.437487 236.99218,272.359382 238.414062,270.859375 C239.835945,269.359368 241.708322,268.609375 244.03125,268.609375 C246.312511,268.609375 248.114577,269.354159 249.4375,270.84375 C250.760423,272.333341 251.421875,274.39582 251.421875,277.03125 C251.421875,279.520846 250.747403,281.536451 249.398438,283.078125 C248.049472,284.619799 246.203137,285.390625 243.859375,285.390625 L243.859375,285.390625 Z M243.96875,269.921875 C242.083324,269.921875 240.580735,270.557285 239.460938,271.828125 C238.34114,273.098965 237.78125,274.864572 237.78125,277.125 C237.78125,279.21876 238.32812,280.901035 239.421875,282.171875 C240.51563,283.442715 242.010407,284.078125 243.90625,284.078125 C245.833343,284.078125 247.317703,283.453131 248.359375,282.203125 C249.401047,280.953119 249.921875,279.218761 249.921875,277 C249.921875,274.718739 249.403651,272.968756 248.367188,271.75 C247.330724,270.531244 245.864593,269.921875 243.96875,269.921875 L243.96875,269.921875 Z M266.75,285 L266.75,282.09375 L266.6875,282.09375 C266.166664,283.104172 265.395838,283.906247 264.375,284.5 C263.354162,285.093753 262.203131,285.390625 260.921875,285.390625 C258.953115,285.390625 257.34636,284.671882 256.101562,283.234375 C254.856765,281.796868 254.234375,279.812513 254.234375,277.28125 C254.234375,274.697904 254.914056,272.606779 256.273438,271.007812 C257.632819,269.408846 259.395823,268.609375 261.5625,268.609375 C263.958345,268.609375 265.666662,269.59374 266.6875,271.5625 L266.75,271.5625 L266.75,261.3125 L268.1875,261.3125 L268.1875,285 L266.75,285 Z M266.75,275.265625 C266.75,273.776034 266.278651,272.513026 265.335938,271.476562 C264.393224,270.440099 263.125008,269.921875 261.53125,269.921875 C259.854158,269.921875 258.468755,270.565098 257.375,271.851562 C256.281245,273.138027 255.734375,274.906239 255.734375,277.15625 C255.734375,279.364594 256.226558,281.070306 257.210938,282.273438 C258.195317,283.476569 259.463534,284.078125 261.015625,284.078125 C262.838551,284.078125 264.249995,283.513026 265.25,282.382812 C266.250005,281.252599 266.75,279.875008 266.75,278.25 L266.75,275.265625 Z M273.65625,277.0625 C273.65625,279.260428 274.164057,280.97916 275.179688,282.21875 C276.195318,283.45834 277.588533,284.078125 279.359375,284.078125 C281.151051,284.078125 282.901033,283.416673 284.609375,282.09375 L284.609375,283.625 C282.953117,284.802089 281.104177,285.390625 279.0625,285.390625 C276.99999,285.390625 275.33334,284.651049 274.0625,283.171875 C272.79166,281.692701 272.15625,279.60418 272.15625,276.90625 C272.15625,274.572905 272.820306,272.606779 274.148438,271.007812 C275.476569,269.408846 277.203114,268.609375 279.328125,268.609375 C281.317718,268.609375 282.843745,269.307285 283.90625,270.703125 C284.968755,272.098965 285.5,274.005196 285.5,276.421875 L285.5,277.0625 L273.65625,277.0625 Z M284,275.75 C283.9375,273.906241 283.494796,272.473963 282.671875,271.453125 C281.848954,270.432287 280.713549,269.921875 279.265625,269.921875 C277.765618,269.921875 276.523442,270.424474 275.539062,271.429688 C274.554683,272.434901 273.947918,273.874991 273.71875,275.75 L284,275.75 Z M289.46875,285 L289.46875,261.3125 L290.90625,261.3125 L290.90625,285 L289.46875,285 Z M185.125,319 L182.5625,312.03125 L172.84375,312.03125 L170.28125,319 L168.578125,319 L177.03125,296.59375 L178.5,296.59375 L186.859375,319 L185.125,319 Z M178.25,300.25 C178.135416,299.937498 178.041667,299.63021 177.96875,299.328125 C177.895833,299.067707 177.817709,298.807293 177.734375,298.546875 L177.671875,298.546875 C177.494791,299.234378 177.322918,299.791665 177.15625,300.21875 L173.390625,310.609375 L182.03125,310.609375 L178.25,300.25 Z M201.21875,319 L201.21875,309.6875 C201.21875,305.843731 199.833347,303.921875 197.0625,303.921875 C195.520826,303.921875 194.255213,304.486974 193.265625,305.617188 C192.276037,306.747401 191.78125,308.145825 191.78125,309.8125 L191.78125,319 L190.34375,319 L190.34375,303 L191.78125,303 L191.78125,305.90625 L191.84375,305.90625 C193.010423,303.708322 194.833321,302.609375 197.3125,302.609375 C199.041675,302.609375 200.364579,303.18489 201.28125,304.335938 C202.197921,305.486985 202.65625,307.130198 202.65625,309.265625 L202.65625,319 L201.21875,319 Z M217.03125,319 L217.03125,315.796875 L216.96875,315.796875 C216.458331,316.89063 215.716151,317.763018 214.742188,318.414062 C213.768224,319.065107 212.687506,319.390625 211.5,319.390625 C209.979159,319.390625 208.776046,318.963546 207.890625,318.109375 C207.005204,317.255204 206.5625,316.17709 206.5625,314.875 C206.5625,312.083319 208.41144,310.395836 212.109375,309.8125 L217.03125,309.078125 C217.03125,305.640608 215.739596,303.921875 213.15625,303.921875 C211.395825,303.921875 209.6823,304.630201 208.015625,306.046875 L208.015625,304.3125 C208.609378,303.843748 209.414057,303.44271 210.429688,303.109375 C211.445318,302.77604 212.401037,302.609375 213.296875,302.609375 C214.942717,302.609375 216.216141,303.119787 217.117188,304.140625 C218.018234,305.161463 218.46875,306.645824 218.46875,308.59375 L218.46875,319 L217.03125,319 Z M212.625,311.03125 C210.947908,311.270835 209.770837,311.658851 209.09375,312.195312 C208.416663,312.731774 208.078125,313.604161 208.078125,314.8125 C208.078125,315.760421 208.393226,316.541664 209.023438,317.15625 C209.653649,317.770836 210.531244,318.078125 211.65625,318.078125 C213.197924,318.078125 214.479162,317.507818 215.5,316.367188 C216.520838,315.226557 217.03125,313.755217 217.03125,311.953125 L217.03125,310.390625 L212.625,311.03125 Z M223.28125,319 L223.28125,295.3125 L224.71875,295.3125 L224.71875,319 L223.28125,319 Z M233.75,322.265625 C233.166664,323.703132 232.520837,324.77083 231.8125,325.46875 C231.104163,326.16667 230.192714,326.515625 229.078125,326.515625 C228.609373,326.515625 228.19271,326.442709 227.828125,326.296875 L227.828125,324.859375 C228.203127,325.005209 228.640623,325.078125 229.140625,325.078125 C230.421881,325.078125 231.432288,324.192717 232.171875,322.421875 L233.65625,318.875 L227.59375,303 L229.203125,303 L234.03125,316.03125 C234.135417,316.312501 234.208333,316.526041 234.25,316.671875 C234.291667,316.869793 234.338541,317.046874 234.390625,317.203125 L234.453125,317.203125 L234.828125,316.125 L239.984375,303 L241.546875,303 L233.75,322.265625 Z M245.015625,317.6875 L255.34375,317.6875 L255.34375,319 L242.671875,319 L242.671875,318.453125 L253.296875,304.3125 L243.4375,304.3125 L243.4375,303 L255.734375,303 L255.734375,303.390625 L245.015625,317.6875 Z M259.53125,311.0625 C259.53125,313.260428 260.039057,314.97916 261.054688,316.21875 C262.070318,317.45834 263.463533,318.078125 265.234375,318.078125 C267.026051,318.078125 268.776033,317.416673 270.484375,316.09375 L270.484375,317.625 C268.828117,318.802089 266.979177,319.390625 264.9375,319.390625 C262.87499,319.390625 261.20834,318.651049 259.9375,317.171875 C258.66666,315.692701 258.03125,313.60418 258.03125,310.90625 C258.03125,308.572905 258.695306,306.606779 260.023438,305.007812 C261.351569,303.408846 263.078114,302.609375 265.203125,302.609375 C267.192718,302.609375 268.718745,303.307285 269.78125,304.703125 C270.843755,306.098965 271.375,308.005196 271.375,310.421875 L271.375,311.0625 L259.53125,311.0625 Z M269.875,309.75 C269.8125,307.906241 269.369796,306.473963 268.546875,305.453125 C267.723954,304.432287 266.588549,303.921875 265.140625,303.921875 C263.640618,303.921875 262.398442,304.424474 261.414062,305.429688 C260.429683,306.434901 259.822918,307.874991 259.59375,309.75 L269.875,309.75 Z M282.890625,304.5 C282.411456,304.156248 281.848962,303.984375 281.203125,303.984375 C279.942702,303.984375 278.885421,304.63541 278.03125,305.9375 C277.177079,307.23959 276.75,309.08853 276.75,311.484375 L276.75,319 L275.34375,319 L275.34375,303 L276.75,303 L276.75,306.546875 L276.8125,306.546875 C277.177085,305.328119 277.755204,304.380212 278.546875,303.703125 C279.338546,303.026038 280.255203,302.6875 281.296875,302.6875 C281.890628,302.6875 282.421873,302.781249 282.890625,302.96875 L282.890625,304.5 Z" id="Bio-Model" fill="#81BB83" sketch:type="MSShapeGroup"></path>
        </g>
    </g>
</svg>