<?xml version="1.0" encoding="UTF-8" standalone="no"?>
<svg width="36px" height="36px" viewBox="0 0 36 36" version="1.1" xmlns="http://www.w3.org/2000/svg" xmlns:xlink="http://www.w3.org/1999/xlink" xmlns:sketch="http://www.bohemiancoding.com/sketch/ns">
    <!-- Generator: Sketch 3.1 (8751) - http://www.bohemiancoding.com/sketch -->
    <title>constant-ON</title>
    <desc>Created with Sketch.</desc>
    <defs></defs>
    <g id="toolbar" stroke="none" stroke-width="1" fill="none" fill-rule="evenodd" sketch:type="MSPage">
        <g id="constant-ON" sketch:type="MSArtboardGroup" fill="#FFFFFF">
            <path d="M14.3258307,10.1837529 C16.9665928,10.6680683 19.5199823,10.6168499 20.9849801,9.29345603 C22.5787771,7.85482068 22.8273372,6.42447065 22.2496234,5.75561819 C21.520514,4.9120205 19.4167922,5.11312816 16.9552946,7.14680118 C15.7930882,8.10488714 14.9073106,9.14206037 14.3258307,10.1837529 L14.3258307,10.1837529 Z M18.2169251,17.4635491 C19.7120514,17.630009 21.5175011,17.3874746 23.5519273,16.5348384 C25.4055826,15.7567702 26.0751883,14.4755562 25.8989366,14.034927 C25.758086,13.6824237 24.4422242,13.2915065 21.4512184,14.4273506 C19.710545,15.0886709 18.6861763,16.2260214 18.2169251,17.4635491 L18.2169251,17.4635491 Z M22.1298626,23.9336421 C22.8966327,24.0496368 23.7605671,24.0247808 24.7171467,23.8191539 C27.9318564,23.1299647 28.9991582,21.9187994 29.1143996,21.374227 C29.1415153,21.2446745 29.1272043,21.1475101 28.9705361,21.0330218 C28.4929996,20.6865442 26.8705804,20.4440099 24.1514843,22.0106913 C23.1986708,22.559783 22.5147541,23.2158309 22.1298626,23.9336421 L22.1298626,23.9336421 Z M27.3217545,32.7567702 L26.5843598,32.4886266 C22.486132,31.0017857 19.9967656,28.5523395 19.7534781,25.7684671 C19.7399202,25.6133054 19.7338946,25.4581437 19.7346478,25.3044884 C17.8787328,24.4081658 16.6487373,22.7985513 16.1501108,21.1090963 C15.9512627,20.4364777 15.8525919,19.7126408 15.8699158,18.9767524 C14.270093,18.3809616 13.0619406,17.3648783 12.3509083,16.1883608 C11.6421356,15.0148561 11.2738148,13.4187994 11.6240585,11.6366993 C9.35387683,11.0130396 7.3503323,10.1837529 6.19490474,9.66478966 L3.66561808,16.4429465 L12.7749668,19.1319142 L12.2002658,21.0804742 L1,17.7738725 L5.07412494,6.8583209 L6.08644218,7.36824558 C7.40155073,8.03031912 9.75684537,9.02907854 12.2695614,9.71148882 C12.9135578,8.35871966 13.9981834,6.95171921 15.661276,5.57936653 C19.3392113,2.54241483 22.3919805,2.81281802 23.7876828,4.42770504 C24.9732388,5.80081093 25.0274701,8.38056281 22.3467878,10.8006337 C20.2121843,12.728857 16.814444,12.7386488 13.5997342,12.1051973 C13.3903412,13.1920825 13.54249,14.2322686 14.0900753,15.1376297 C14.5329641,15.8705052 15.2598139,16.5099824 16.225432,16.9400666 C16.8347807,15.1346169 18.2523261,13.4692646 20.7296411,12.5277493 C26.1708463,10.460935 27.5055383,12.5819806 27.7857333,13.2809616 C28.4914931,15.0479975 26.9775366,17.300102 24.3375277,18.4080772 C21.9302614,19.4166284 19.7534781,19.688538 17.9126274,19.4670936 C17.9352237,19.8346612 17.9977404,20.1939434 18.0986708,20.5336421 C18.4165264,21.6099824 19.1283119,22.6079886 20.2016393,23.2542447 C20.7439521,22.0897786 21.7449712,21.0518521 23.1376606,20.2496811 C26.5158175,18.3056403 28.9825875,18.5308508 30.1651307,19.390266 C30.9499778,19.9604476 31.3002215,20.859783 31.1021267,21.7952726 C30.7225078,23.5879177 28.4952592,25.0875633 25.1434648,25.8061277 C23.9307931,26.0652327 22.8228179,26.094608 21.829331,25.9447188 C22.1720425,27.6040453 23.8886132,29.1850378 26.5504652,30.2960258 L29.0699601,26.6421933 L35,30.1039567 L33.9763846,31.858188 L29.6732831,29.3469784 L27.3217545,32.7567702 Z" id="Protein" sketch:type="MSShapeGroup"></path>
        </g>
    </g>
</svg>