<?xml version="1.0" encoding="UTF-8" standalone="no"?>
<svg width="25px" height="25px" viewBox="0 0 25 25" version="1.1" xmlns="http://www.w3.org/2000/svg" xmlns:xlink="http://www.w3.org/1999/xlink" xmlns:sketch="http://www.bohemiancoding.com/sketch/ns">
    <!-- Generator: Sketch 3.3.3 (12072) - http://www.bohemiancoding.com/sketch -->
    <title>screen-fit</title>
    <desc>Created with Sketch.</desc>
    <defs></defs>
    <g id="Temporal-Properties-Editor" stroke="none" stroke-width="1" fill="none" fill-rule="evenodd" sketch:type="MSPage">
        <g id="screen-fit" sketch:type="MSArtboardGroup">
            <path d="M25,-5.55111512e-17 L0,25" id="Path-Copy" stroke="#606060" stroke-width="2" fill="#D8D8D8" sketch:type="MSShapeGroup"></path>
            <path d="M0,0 L25,25" id="Path-Copy-2" stroke="#606060" stroke-width="2" fill="#D8D8D8" sketch:type="MSShapeGroup"></path>
            <path d="M0,17 L8,17 L0,25 L0,17 Z" id="Path-95-Copy" fill="#606060" sketch:type="MSShapeGroup" transform="translate(4.000000, 21.000000) rotate(-90.000000) translate(-4.000000, -21.000000) "></path>
            <path d="M17,-1.77635684e-15 L25,-1.77635684e-15 L17,8 L17,-1.77635684e-15 Z" id="Path-95-Copy-2" fill="#606060" sketch:type="MSShapeGroup" transform="translate(21.000000, 4.000000) rotate(-270.000000) translate(-21.000000, -4.000000) "></path>
            <path d="M17,17 L25,17 L17,25 L17,17 Z" id="Path-95-Copy-3" fill="#606060" sketch:type="MSShapeGroup" transform="translate(21.000000, 21.000000) rotate(-180.000000) translate(-21.000000, -21.000000) "></path>
            <path d="M0,0 L8,0 L0,8 L0,0 Z" id="Path-95" fill="#606060" sketch:type="MSShapeGroup"></path>
        </g>
    </g>
</svg>