<?xml version="1.0" encoding="UTF-8" standalone="no"?>
<svg width="30px" height="30px" viewBox="0 0 30 30" version="1.1" xmlns="http://www.w3.org/2000/svg" xmlns:xlink="http://www.w3.org/1999/xlink" xmlns:sketch="http://www.bohemiancoding.com/sketch/ns">
    <!-- Generator: Sketch 3.3.3 (12072) - http://www.bohemiancoding.com/sketch -->
    <title>selfloop-state</title>
    <desc>Created with Sketch.</desc>
    <defs></defs>
    <g id="Temporal-Properties-Editor" stroke="none" stroke-width="1" fill="none" fill-rule="evenodd" sketch:type="MSPage">
        <g id="selfloop-state" sketch:type="MSArtboardGroup">
            <path d="M17.75,12 L17.75,14 L23.75,11 L17.75,8 L17.75,10 L12.2452534,10 C8.93367038,10 6.25,12.6863739 6.25,16 C6.25,19.3096442 8.93571696,22 12.2452534,22 L17.2547466,22 C20.5663296,22 23.25,19.3136261 23.25,16 C23.25,15.0940071 23.0478433,14.214029 22.6638737,13.4122929 L20.8600702,14.2761754 C21.1156132,14.8097543 21.25,15.3947332 21.25,16 C21.25,18.2095071 19.4613091,20 17.2547466,20 L12.2452534,20 C10.0410598,20 8.25,18.2058466 8.25,16 C8.25,13.7904929 10.0386909,12 12.2452534,12 L17.75,12 L17.75,12 Z" id="Triangle-1-Copy-2" fill="#606060" sketch:type="MSShapeGroup"></path>
            <circle id="Oval-108" stroke="#FFFFFF" fill="#606060" sketch:type="MSShapeGroup" cx="9.5" cy="19.5" r="4.5"></circle>
            <path d="M9.5,17.5 L9.5,21.5" id="Line" stroke="#FFFFFF" stroke-linecap="square" sketch:type="MSShapeGroup"></path>
            <path d="M9.5,17.5 L8.5,17.5" id="Line-Copy" stroke="#FFFFFF" stroke-linecap="square" sketch:type="MSShapeGroup"></path>
        </g>
    </g>
</svg>