<?xml version="1.0" encoding="UTF-8" standalone="no"?>
<svg width="36px" height="36px" viewBox="0 0 36 36" version="1.1" xmlns="http://www.w3.org/2000/svg" xmlns:xlink="http://www.w3.org/1999/xlink" xmlns:sketch="http://www.bohemiancoding.com/sketch/ns">
    <!-- Generator: Sketch 3.1 (8751) - http://www.bohemiancoding.com/sketch -->
    <title>visicon2</title>
    <desc>Created with Sketch.</desc>
    <defs></defs>
    <g id="toolbar" stroke="none" stroke-width="1" fill="none" fill-rule="evenodd" sketch:type="MSPage">
        <g id="visicon2" sketch:type="MSArtboardGroup" fill="#797A7D">
            <path d="M17.9971114,12.26422 C15.1085526,12.26422 12.7659313,14.6111443 12.7659313,17.5043355 C12.7659313,20.3946363 15.1085526,22.73578 17.9971114,22.73578 C20.8914474,22.73578 23.2340687,20.3946363 23.2340687,17.5043355 C23.2340687,14.6111443 20.8914474,12.26422 17.9971114,12.26422 M30.5650925,21.6913601 C30.1141247,23.0516602 29.4442495,24.3094913 28.6033823,25.4338306 L26.8032688,24.1261751 C26.0948734,25.0671982 25.2474296,25.8954113 24.2787882,26.5685108 L25.584716,28.3687697 C24.4469616,29.1659601 23.1833121,29.7901752 21.8210133,30.1991114 L21.1332872,28.0801642 C20.1383394,28.3744102 19.0888995,28.5389248 17.9990605,28.5389248 C17.8985322,28.5389248 17.8008225,28.5267037 17.7002943,28.5238834 L17.7002943,30.75 C16.2778664,30.7189773 14.9165071,30.4623346 13.6387648,30.0157952 L14.3255513,27.8987282 C13.2394703,27.5132942 12.2332482,26.9642857 11.332252,26.277085 L10.0244452,28.077344 C8.93460611,27.2528912 7.97629937,26.2686243 7.18522655,25.1518057 L8.98346097,23.8450903 C8.34177125,22.9303895 7.82973481,21.9179201 7.48681132,20.8302441 L5.36914132,21.5165047 C4.96890732,20.2511529 4.75,18.9058941 4.75,17.5079907 L6.9766539,17.5079907 C6.9766539,16.3507485 7.15610154,15.23487 7.48681132,14.1866774 L5.36914132,13.4985367 C5.78722612,12.1852407 6.40730696,10.9650129 7.18710558,9.86323566 L8.98346097,11.1718312 C9.63736439,10.2430292 10.4293767,9.42609706 11.332252,8.7379563 L10.0244452,6.93769733 C11.1124052,6.11512469 12.3271999,5.45800667 13.6387648,5.00112633 L14.3255513,7.11819327 C15.3862653,6.74310015 16.5183826,6.52500089 17.7002943,6.49209798 L17.7002943,4.26504133 C17.8008225,4.26222108 17.8985322,4.25 17.9990605,4.25 C19.3294157,4.25 20.6099766,4.45211785 21.8210133,4.81498989 L21.1332872,6.93581716 C22.2691626,7.27330696 23.3279976,7.78659229 24.2787882,8.44747064 L25.584716,6.64815176 C26.7412607,7.45850332 27.7578175,8.45217106 28.6015032,9.58215084 L26.8032688,10.8888662 C27.5097852,11.8270691 28.0697369,12.8780819 28.4493016,14.0146422 L30.5650925,13.3255614 C31.0038467,14.6416776 31.25,16.0452215 31.25,17.5079907 L29.0233461,17.5079907 C29.0233461,18.7310387 28.8166525,19.9033222 28.4493016,21.0022793 L30.5650925,21.6913601 Z" id="settings" sketch:type="MSShapeGroup"></path>
        </g>
    </g>
</svg>