<?xml version="1.0" encoding="UTF-8" standalone="no"?>
<svg width="36px" height="36px" viewBox="0 0 36 36" version="1.1" xmlns="http://www.w3.org/2000/svg" xmlns:xlink="http://www.w3.org/1999/xlink" xmlns:sketch="http://www.bohemiancoding.com/sketch/ns">
    <!-- Generator: Sketch 3.1.1 (8761) - http://www.bohemiancoding.com/sketch -->
    <title>zoomplus</title>
    <desc>Created with Sketch.</desc>
    <defs></defs>
    <g id="toolbar" stroke="none" stroke-width="1" fill="none" fill-rule="evenodd" sketch:type="MSPage">
        <g id="zoomplus" sketch:type="MSArtboardGroup" fill="#808184">
            <g id="Fill-1-+-Fill-4" sketch:type="MSLayerGroup" transform="translate(5.000000, 5.000000)">
                <path d="M17.004823,14.685853 C17.0033383,14.6873377 17.0018537,14.6888224 17.0018537,14.6917918 C16.3701226,15.7555644 15.4867385,16.6404332 14.4207388,17.2699372 C13.9879548,17.5275291 13.5291889,17.7324148 13.0451835,17.8942449 C12.8595986,17.9603131 12.672529,18.0204426 12.4795207,18.071664 C12.3154637,18.113235 12.1491796,18.1496097 11.9806685,18.1793033 C11.5746087,18.2527949 11.1626103,18.3047587 10.735765,18.3047587 C6.71005726,18.3047587 3.43411254,15.031041 3.43411254,11.0023639 C3.43411254,6.97814084 6.71005726,3.70442314 10.735765,3.70442314 C14.759988,3.70442314 18.0359327,6.97814084 18.0359327,11.0023639 C18.0359327,11.4292092 17.9832266,11.8426923 17.909735,12.2472674 C17.8807838,12.4165208 17.8429244,12.5820626 17.8020958,12.749089 C17.7516167,12.9391279 17.6907448,13.1254552 17.627646,13.3117824 C17.4643312,13.7957878 17.2587032,14.2538114 17.004823,14.685853 L17.004823,14.685853 Z M19.6520061,17.3404595 C20.9280879,15.549194 21.686759,13.3667155 21.686759,11.0023639 C21.686759,4.96714282 16.7724707,0.0535969201 10.735765,0.0535969201 C4.69757456,0.0535969201 -0.215971338,4.96714282 -0.215971338,11.0023639 C-0.215971338,17.0435237 4.69757456,21.9563272 10.735765,21.9563272 C13.0956626,21.9563272 15.2796258,21.1983985 17.0708912,19.920832 L23.1320942,25.9820349 L25.713209,23.4024048 L19.6520061,17.3404595 Z" id="Fill-1" sketch:type="MSShapeGroup"></path>
                <path d="M9.57422619,12.0354779 L6.43784132,12.0354779 L6.43784132,9.64514437 L9.57422619,9.64514437 L9.57422619,6.52731799 L12.0335973,6.52731799 L12.0335973,9.64514437 L15.1699822,9.64514437 L15.1699822,12.0354779 L12.0335973,12.0354779 L12.0335973,15.1540466 L9.57422619,15.1540466 L9.57422619,12.0354779 Z" id="Fill-4" sketch:type="MSShapeGroup"></path>
            </g>
        </g>
    </g>
</svg>