<?xml version="1.0" encoding="UTF-8" standalone="no"?>
<svg width="270px" height="230px" viewBox="0 0 270 230" version="1.1" xmlns="http://www.w3.org/2000/svg" xmlns:xlink="http://www.w3.org/1999/xlink" xmlns:sketch="http://www.bohemiancoding.com/sketch/ns">
    <!-- Generator: Sketch 3.2.2 (9983) - http://www.bohemiancoding.com/sketch -->
    <title>BMA-logo</title>
    <desc>Created with Sketch.</desc>
    <defs>
        <radialGradient cx="50%" cy="50%" fx="50%" fy="50%" r="50%" id="radialGradient-1">
            <stop stop-color="#81BB83" offset="0%"></stop>
            <stop stop-color="#81BB83" offset="73.2048234%"></stop>
            <stop stop-color="#FFFFFF" offset="100%"></stop>
        </radialGradient>
        <filter x="-50%" y="-50%" width="200%" height="200%" filterUnits="objectBoundingBox" id="filter-2">
            <feOffset dx="2" dy="5" in="SourceAlpha" result="shadowOffsetOuter1"></feOffset>
            <feGaussianBlur stdDeviation="5" in="shadowOffsetOuter1" result="shadowBlurOuter1"></feGaussianBlur>
            <feColorMatrix values="0 0 0 0 0   0 0 0 0 0   0 0 0 0 0  0 0 0 0.35 0" in="shadowBlurOuter1" type="matrix" result="shadowMatrixOuter1"></feColorMatrix>
            <feMerge>
                <feMergeNode in="shadowMatrixOuter1"></feMergeNode>
                <feMergeNode in="SourceGraphic"></feMergeNode>
            </feMerge>
        </filter>
        <radialGradient cx="50%" cy="50%" fx="50%" fy="50%" r="50%" id="radialGradient-3">
            <stop stop-color="#81BB83" offset="0%"></stop>
            <stop stop-color="#81BB83" offset="71.171875%"></stop>
            <stop stop-color="#FFFFFF" offset="100%"></stop>
        </radialGradient>
        <radialGradient cx="50%" cy="50%" fx="50%" fy="50%" r="50%" id="radialGradient-4">
            <stop stop-color="#FEB6B2" offset="0%"></stop>
            <stop stop-color="#FEB6B2" offset="71.0592831%"></stop>
            <stop stop-color="#FFFFFF" offset="100%"></stop>
        </radialGradient>
    </defs>
    <g id="Logos" stroke="none" stroke-width="1" fill="none" fill-rule="evenodd" sketch:type="MSPage">
        <g id="BMA-logo" sketch:type="MSArtboardGroup">
            <path d="M135,206 C198.512746,206 250,154.512746 250,91 C250,27.4872538 198.512746,-24 135,-24 C71.4872538,-24 20,27.4872538 20,91 C20,154.512746 71.4872538,206 135,206 Z" id="Oval-3" fill="url(#radialGradient-1)" filter="url(#filter-2)" sketch:type="MSShapeGroup"></path>
            <path d="M135,191 C190.228475,191 235,146.228475 235,91 C235,35.771525 190.228475,-9 135,-9 C79.771525,-9 35,35.771525 35,91 C35,146.228475 79.771525,191 135,191 Z" id="Oval-3" fill="url(#radialGradient-3)" sketch:type="MSShapeGroup"></path>
            <circle id="Oval-1" fill="#D8D8D8" sketch:type="MSShapeGroup" cx="135" cy="91" r="85"></circle>
            <path d="M135,176 C181.944204,176 220,137.944204 220,91 C220,44.0557963 181.944204,6 135,6 C88.0557963,6 50,44.0557963 50,91 C50,137.944204 88.0557963,176 135,176 Z" id="Oval-3" fill="url(#radialGradient-4)" sketch:type="MSShapeGroup"></path>
            <circle id="Oval-2" fill="#FFFFFF" sketch:type="MSShapeGroup" cx="135" cy="92" r="70"></circle>
            <path d="M85.7802734,109 L85.7802734,70.4892578 L95.9047852,70.4892578 C98.9305164,70.4892578 101.338533,71.3038656 103.128906,72.9331055 C104.91928,74.5623454 105.814453,76.7197131 105.814453,79.4052734 C105.814453,81.6432404 105.219163,83.5812906 104.028564,85.2194824 C102.837966,86.8576742 101.17742,88.0169237 99.046875,88.6972656 L99.046875,88.8046875 C101.714532,89.0553398 103.818189,90.0086994 105.35791,91.6647949 C106.897631,93.3208904 107.66748,95.4290237 107.66748,97.9892578 C107.66748,101.229834 106.620128,103.875071 104.525391,105.925049 C102.430654,107.975027 99.628761,109 96.1196289,109 L85.7802734,109 Z M88.4389648,72.9331055 L88.4389648,87.8378906 L93.8100586,87.8378906 C96.6030413,87.8378906 98.8409747,87.121752 100.523926,85.6894531 C102.206877,84.2571543 103.04834,82.3146281 103.04834,79.8618164 C103.04834,75.2426527 100.318061,72.9331055 94.8574219,72.9331055 L88.4389648,72.9331055 Z M88.4389648,90.2548828 L88.4389648,106.583008 L95.5825195,106.583008 C98.6082508,106.583008 100.922274,105.857917 102.524658,104.407715 C104.127043,102.957512 104.928223,100.898614 104.928223,98.230957 C104.928223,92.9135476 101.320674,90.2548828 94.1054688,90.2548828 L88.4389648,90.2548828 Z M149.078613,109 L149.078613,81.6611328 C149.078613,80.9986946 149.177082,79.1098789 149.374023,75.9946289 L149.266602,75.9946289 C148.711586,77.4448315 148.246096,78.5637981 147.870117,79.3515625 L134.173828,109 L133.314453,109 L119.564453,79.5126953 C119.11686,78.5637973 118.696128,77.3553133 118.302246,75.887207 L118.167969,75.887207 C118.293295,77.6059656 118.355957,79.3157467 118.355957,81.0166016 L118.355957,109 L115.697266,109 L115.697266,70.4892578 L118.167969,70.4892578 L132.535645,101.507324 C132.625163,101.686362 132.723632,101.928058 132.831055,102.232422 C132.938477,102.536785 133.05485,102.841144 133.180176,103.145508 C133.359213,103.611005 133.5472,104.130205 133.744141,104.703125 L133.905273,104.703125 L134.200684,103.84375 C134.218587,103.772135 134.522946,102.92172 135.11377,101.29248 L149.266602,70.4892578 L151.629883,70.4892578 L151.629883,109 L149.078613,109 Z M186.595703,109 L182.191406,97.0224609 L165.487305,97.0224609 L161.083008,109 L158.155762,109 L172.68457,70.4892578 L175.208984,70.4892578 L189.57666,109 L186.595703,109 Z M174.779297,76.7734375 C174.582356,76.2363254 174.421225,75.7081732 174.295898,75.1889648 C174.170572,74.7413715 174.036296,74.2937848 173.893066,73.8461914 L173.785645,73.8461914 C173.481281,75.0278379 173.185874,75.9856734 172.899414,76.7197266 L166.427246,94.5786133 L181.27832,94.5786133 L174.779297,76.7734375 Z" id="BMA" fill="#81BB83" sketch:type="MSShapeGroup"></path>
        </g>
    </g>
</svg>