<?xml version="1.0" encoding="UTF-8" standalone="no"?>
<svg width="35px" height="35px" viewBox="0 0 35 35" version="1.1" xmlns="http://www.w3.org/2000/svg" xmlns:xlink="http://www.w3.org/1999/xlink" xmlns:sketch="http://www.bohemiancoding.com/sketch/ns">
    <!-- Generator: Sketch 3.3.3 (12072) - http://www.bohemiancoding.com/sketch -->
    <title>LTL-delete</title>
    <desc>Created with Sketch.</desc>
    <defs></defs>
    <g id="Page-1" stroke="none" stroke-width="1" fill="none" fill-rule="evenodd" sketch:type="MSPage">
        <g id="LTL-delete" sketch:type="MSArtboardGroup" fill="#CF451B">
            <path d="M25,3 L30,3 L31,3 L31,5 L30,5 L4,5 L3,5 L3,3 L4,3 L9,3 L9,1 L25,1 L25,3 Z M7,7 L27,7 L25,33 L9,33 L7,7 Z M11,11.8888889 L11,26.1111111 L11,27.1111111 L13,27.1111111 L13,26.1111111 L13,11.8888889 L13,10.8888889 L11,10.8888889 L11,11.8888889 Z M16,11.8888889 L16,26.1111111 L16,27.1111111 L18,27.1111111 L18,26.1111111 L18,11.8888889 L18,10.8888889 L16,10.8888889 L16,11.8888889 Z M21,11.8888889 L21,26.1111111 L21,27.1111111 L23,27.1111111 L23,26.1111111 L23,11.8888889 L23,10.8888889 L21,10.8888889 L21,11.8888889 Z" id="Rectangle-11-Copy" sketch:type="MSShapeGroup"></path>
        </g>
    </g>
</svg>