<?xml version="1.0" encoding="UTF-8" standalone="no"?>
<svg width="31px" height="30px" viewBox="0 0 31 30" version="1.1" xmlns="http://www.w3.org/2000/svg" xmlns:xlink="http://www.w3.org/1999/xlink" xmlns:sketch="http://www.bohemiancoding.com/sketch/ns">
    <!-- Generator: Sketch 3.3.3 (12072) - http://www.bohemiancoding.com/sketch -->
    <title>LTL-state-tool-num</title>
    <desc>Created with Sketch.</desc>
    <defs></defs>
    <g id="LTL-assets" stroke="none" stroke-width="1" fill="none" fill-rule="evenodd" sketch:type="MSPage">
        <g id="LTL-state-tool-num" sketch:type="MSArtboardGroup" transform="translate(0.500000, 0.000000)" fill="#606060">
            <path d="M7.26157398,8.12268544 L7.26157398,20 L6.51620363,20 L6.51620363,9.29745393 C6.14351659,9.65393719 5.71817363,9.96180447 5.24016199,10.221065 C4.76215035,10.4803256 4.23958614,10.7098757 3.67245369,10.9097224 L3.67245369,10.2291669 C4.01273316,10.1157404 4.32870222,9.98746235 4.62037034,9.84432892 C4.91203845,9.70119549 5.19154954,9.54321096 5.45891198,9.3703706 C5.72627443,9.19753023 5.98553109,9.00713862 6.23668975,8.79919005 C6.4878484,8.59124149 6.74305418,8.3657422 7.00231473,8.12268544 L7.26157398,8.12268544 Z M9.69212949,20 L9.69212949,19.4571759 C9.69212949,19.0952914 9.72183598,18.7698703 9.78124986,18.4809028 C9.84066373,18.1919353 9.9311335,17.9259272 10.0526619,17.6828704 C10.1741903,17.4398137 10.3254233,17.2116138 10.5063656,16.998264 C10.6873078,16.7849141 10.8979539,16.5715675 11.13831,16.3582177 C11.3786661,16.1448678 11.6514258,15.92612 11.956597,15.7019677 C12.2617683,15.4778153 12.5952912,15.2334119 12.9571757,14.9687501 C13.3082577,14.7148908 13.6363794,14.4637359 13.9415507,14.2152779 C14.246722,13.9668199 14.5127301,13.6994614 14.7395831,13.4131946 C14.9664361,13.1269277 15.1460253,12.812309 15.2783562,12.4693289 C15.4106871,12.1263488 15.4768516,11.7334129 15.4768516,11.2905094 C15.4768516,10.5235303 15.2648553,9.92805017 14.8408562,9.50405115 C14.4168572,9.08005212 13.8213771,8.86805579 13.0543979,8.86805579 C12.5358768,8.86805579 12.0362676,8.98148058 11.5555554,9.20833356 C11.0748431,9.43518654 10.6049404,9.7511556 10.1458332,10.1562502 L10.1458332,9.28125023 C10.5887366,8.94097076 11.0667411,8.67361232 11.5798609,8.47916691 C12.0929808,8.2847215 12.6276976,8.18750025 13.1840276,8.18750025 C13.648536,8.18750025 14.0698281,8.2577156 14.4479164,8.3981484 C14.8260047,8.53858119 15.1487253,8.73842487 15.4160877,8.99768542 C15.6834501,9.25694597 15.8900453,9.57021443 16.0358794,9.93750021 C16.1817134,10.304786 16.2546293,10.7152757 16.2546293,11.1689817 C16.2546293,11.7037066 16.1776625,12.1776601 16.0237266,12.5908566 C15.8697906,13.0040531 15.6604949,13.3794352 15.3958331,13.717014 C15.1311713,14.0545929 14.8219537,14.3651607 14.4681711,14.648727 C14.1143884,14.9322932 13.7403567,15.2145049 13.3460646,15.4953705 C12.8221422,15.8680575 12.3792454,16.1988798 12.0173609,16.4878473 C11.6554764,16.7768148 11.3611121,17.0590265 11.1342591,17.3344908 C10.9074061,17.6099551 10.7440204,17.8935171 10.6440971,18.1851852 C10.5441737,18.4768533 10.4942128,18.8144271 10.4942128,19.1979167 L10.4942128,19.3194445 L16.2708331,19.3194445 L16.2708331,20 L9.69212949,20 Z M18.3935182,19.5868056 L18.3935182,18.7361111 C19.2793251,19.2600335 20.1138074,19.5219908 20.8969904,19.5219908 C21.8314086,19.5219908 22.5632685,19.2829885 23.0925922,18.8049769 C23.6219158,18.3269652 23.8865736,17.7017786 23.8865736,16.9293982 C23.8865736,16.0705976 23.5827572,15.4197554 22.9751153,14.976852 C22.3674734,14.5339485 21.5019342,14.3125001 20.3784719,14.3125001 L19.4872682,14.3125001 L19.4872682,13.6319446 L20.2812496,13.6319446 C21.3182918,13.6319446 22.1082145,13.4118465 22.6510412,12.9716437 C23.193868,12.5314409 23.4652773,11.9089548 23.4652773,11.1041669 C23.4652773,10.4074041 23.2681343,9.86053461 22.8738422,9.46354189 C22.4795501,9.06654917 21.9043244,8.86805579 21.1481478,8.86805579 C20.4189775,8.86805579 19.6547104,9.12191127 18.8553237,9.62962985 L18.8553237,8.83564839 C19.7303281,8.40354747 20.5324034,8.18750025 21.2615737,8.18750025 C22.1797881,8.18750025 22.9075972,8.43595455 23.4450227,8.93287061 C23.9824482,9.42978666 24.251157,10.0887307 24.251157,10.9097224 C24.251157,12.4814895 23.4976923,13.4807079 21.9907403,13.9074075 L21.9907403,13.9398149 C22.8009296,14.0208339 23.4490712,14.3219497 23.9351847,14.8431714 C24.4212983,15.3643931 24.6643514,16.0219869 24.6643514,16.8159723 C24.6643514,17.8314094 24.3132747,18.6496883 23.6111107,19.2708333 C22.9089467,19.8919784 21.9988478,20.2025463 20.8807867,20.2025463 C20.0165848,20.2025463 19.1875036,19.9973014 18.3935182,19.5868056 L18.3935182,19.5868056 Z" id="123" sketch:type="MSShapeGroup"></path>
        </g>
    </g>
</svg>