<?xml version="1.0" encoding="UTF-8" standalone="no"?>
<svg width="30px" height="30px" viewBox="0 0 30 30" version="1.1" xmlns="http://www.w3.org/2000/svg" xmlns:xlink="http://www.w3.org/1999/xlink" xmlns:sketch="http://www.bohemiancoding.com/sketch/ns">
    <!-- Generator: Sketch 3.3.3 (12072) - http://www.bohemiancoding.com/sketch -->
    <title>LTL-state-tool-var</title>
    <desc>Created with Sketch.</desc>
    <defs></defs>
    <g id="LTL-assets" stroke="none" stroke-width="1" fill="none" fill-rule="evenodd" sketch:type="MSPage">
        <g id="LTL-state-tool-var" sketch:type="MSArtboardGroup" fill="#EE4036">
            <path d="M12.5964462,9.54032444 C14.3239697,9.85715205 15.9943361,9.82364618 16.9527027,8.9579135 C17.9953267,8.01679261 18.1579287,7.08109178 17.7800021,6.64354447 C17.3030362,6.091683 15.9268316,6.22324283 14.3165787,7.55362316 C13.556291,8.18038011 12.9768364,8.85887408 12.5964462,9.54032444 L12.5964462,9.54032444 Z M15.1419072,14.3025933 C16.1199831,14.4114874 17.3010652,14.2528272 18.6319383,13.6950529 C19.8445553,13.1860593 20.2825954,12.3479197 20.1672957,12.0596706 C20.0751546,11.8290713 19.2143492,11.5733427 17.2577047,12.3163847 C16.1189977,12.7490047 15.4488802,13.4930322 15.1419072,14.3025933 L15.1419072,14.3025933 Z M17.7016575,18.5351736 C18.2032602,18.6110546 18.7684255,18.5947944 19.3941969,18.4602782 C21.4971833,18.009427 22.1953866,17.2171117 22.2707748,16.8608654 C22.2885132,16.7761152 22.2791513,16.7125526 22.1766628,16.6376571 C21.8642697,16.4109997 20.8029219,16.2523395 19.0241541,17.2772251 C18.4008463,17.6364278 17.9534443,18.0655987 17.7016575,18.5351736 L17.7016575,18.5351736 Z M21.0980692,24.3070533 L20.6156832,24.1316402 C17.9347204,23.1589844 16.3062364,21.5566152 16.1470835,19.7354723 C16.1382143,19.6339692 16.1342724,19.5324661 16.1347651,19.4319485 C14.9206699,18.8455957 14.1160362,17.7926243 13.7898466,16.6874232 C13.659765,16.2474122 13.5952169,15.7738954 13.6065498,15.2924948 C12.5599839,14.9027426 11.7696395,14.2380452 11.3044991,13.4683955 C10.8408369,12.7007168 10.5998903,11.6566146 10.8290113,10.4908073 C9.34391269,10.082824 8.0332417,9.54032444 7.27738858,9.20083109 L5.62278964,13.6349394 L11.581908,15.3939979 L11.2059524,16.6686993 L3.87900595,14.5055995 L6.5442012,7.36490625 L7.20643496,7.69848679 C8.06674757,8.1315995 9.60752508,8.78496406 11.2512839,9.23138057 C11.672571,8.34643129 12.3821072,7.42600519 13.4700626,6.52824484 C15.8760801,4.54154356 17.8731288,4.71843487 18.7861639,5.77485539 C19.5617263,6.67310848 19.5972031,8.36072056 17.8435648,9.94387314 C16.4471582,11.2052708 14.2244375,11.2116763 12.1214512,10.7972875 C11.9844713,11.5083019 12.0840034,12.1887668 12.4422206,12.7810324 C12.7319479,13.260462 13.2074357,13.6787927 13.83912,13.9601435 C14.2377413,12.7790614 15.1650657,11.6896278 16.785666,11.073711 C20.3451725,9.72165036 21.2182962,11.1091878 21.401593,11.5664444 C21.8632843,12.7223971 20.87289,14.1956701 19.1458593,14.920481 C17.5710832,15.5802511 16.1470835,15.7581279 14.9428429,15.6132643 C14.9576249,15.8537182 14.9985218,16.088752 15.0645481,16.3109748 C15.2724816,17.0150909 15.7381147,17.6679628 16.4402599,18.0907281 C16.795028,17.3289621 17.4498707,16.6499754 18.3609349,16.1252143 C20.5708444,14.8534693 22.1845465,15.0007966 22.958138,15.5630054 C23.4715663,15.9360047 23.7006873,16.5243284 23.5710984,17.1363034 C23.3227608,18.309009 21.8657479,19.2900413 19.6730841,19.760109 C18.8797832,19.9296093 18.1549723,19.9488259 17.5050569,19.850772 C17.7292506,20.9362638 18.8521901,21.9705113 20.5935102,22.6972931 L22.2417036,20.3070431 L26.120994,22.5716461 L25.4513693,23.7192223 L22.6363831,22.076449 L21.0980692,24.3070533 Z" id="Protein" sketch:type="MSShapeGroup"></path>
        </g>
    </g>
</svg>