<?xml version="1.0" encoding="UTF-8" standalone="no"?>
<svg width="35px" height="35px" viewBox="0 0 35 35" version="1.1" xmlns="http://www.w3.org/2000/svg" xmlns:xlink="http://www.w3.org/1999/xlink" xmlns:sketch="http://www.bohemiancoding.com/sketch/ns">
    <!-- Generator: Sketch 3.3.3 (12072) - http://www.bohemiancoding.com/sketch -->
    <title>state-variable</title>
    <desc>Created with Sketch.</desc>
    <defs></defs>
    <g id="Page-1" stroke="none" stroke-width="1" fill="none" fill-rule="evenodd" sketch:type="MSPage">
        <g id="state-variable" sketch:type="MSArtboardGroup" fill="#EE4036">
            <path d="M13.9338946,9.38913166 C16.4969872,9.85920256 18.9752769,9.80949055 20.3971865,8.52502001 C21.9441072,7.12869746 22.1853567,5.74041656 21.6246345,5.09123623 C20.9169694,4.27245023 18.8751218,4.46764296 16.4860213,6.44150207 C15.3579973,7.37140902 14.498272,8.37807717 13.9338946,9.38913166 L13.9338946,9.38913166 Z M17.710545,16.4548162 C19.1616969,16.6163802 20.9140452,16.3809792 22.8886354,15.5534205 C24.6877714,14.7982367 25.3376828,13.5547054 25.166615,13.127036 C25.029907,12.7849004 23.752747,12.4054808 20.849712,13.5079177 C19.1602348,14.1497874 18.1659947,15.2536864 17.710545,16.4548162 L17.710545,16.4548162 Z M21.5083961,22.7346124 C22.2526141,22.8471955 23.0911387,22.8230705 24.0195835,22.6234914 C27.139743,21.9545725 28.1756535,20.7790298 28.2875055,20.2504742 C28.3138237,20.124732 28.2999335,20.0304254 28.1478733,19.9193045 C27.6843819,19.5830174 26.109681,19.3476164 23.4705583,20.8682189 C22.5457687,21.4011609 21.8819672,22.0379132 21.5083961,22.7346124 L21.5083961,22.7346124 Z M26.5475853,31.2982367 L25.8318786,31.0379797 C21.854187,29.5948694 19.4380372,27.2174657 19.2019052,24.5154719 C19.1887461,24.3648738 19.1828977,24.2142757 19.1836287,24.0651396 C17.3822995,23.1951795 16.1884803,21.6329066 15.7045193,19.9931414 C15.5115197,19.3403058 15.415751,18.6377582 15.4325654,17.9235136 C13.8797962,17.345246 12.7071777,16.3590475 12.017058,15.2171334 C11.3291316,14.0781436 10.9716438,12.5290298 11.3115862,10.7993443 C9.10817457,10.1940275 7.16355782,9.38913166 6.04211342,8.88543206 L3.58721755,15.4642314 L12.4286442,18.0741117 L11.8708463,19.9653612 L1,16.7560125 L4.95429774,6.1615065 L5.93684094,6.65643339 C7.21326983,7.29903419 9.49929109,8.26841833 11.9381037,8.93075772 C12.5631591,7.61777588 13.6158839,6.25215781 15.230062,4.92016844 C18.7998228,1.97253884 21.7628046,2.234989 23.1174568,3.80237934 C24.2681436,5.13509976 24.3207798,7.63897659 21.7189411,9.98786893 C19.6471201,11.8593798 16.3493132,11.8688835 13.2291537,11.254063 C13.0259194,12.308981 13.1735933,13.3185734 13.7050731,14.1973062 C14.1349358,14.9086266 14.8404076,15.5292956 15.7776252,15.9467302 C16.3690518,14.194382 17.7449047,12.5780107 20.1493576,11.664187 C25.4305272,9.65816135 26.7259637,11.7168233 26.9979176,12.395246 C27.6829198,14.1103102 26.2134914,16.2961764 23.6511298,17.3715641 C21.3146655,18.350452 19.2019052,18.6143643 17.4151972,18.3994329 C17.4371289,18.7561897 17.4978068,19.1049048 17.5957687,19.4346124 C17.9042756,20.4792956 18.5951263,21.4479487 19.6368852,22.0751972 C20.1632477,20.9449801 21.134825,19.9375809 22.4865529,19.1590032 C25.7653522,17.2721401 28.1595702,17.4907267 29.3073327,18.3248649 C30.0690961,18.8782765 30.4090385,19.7511609 30.21677,20.6591361 C29.8483163,22.3990563 27.6865751,23.8545947 24.4333629,24.5520249 C23.256358,24.8035092 22.1809703,24.8320205 21.2167036,24.6865397 C21.5493354,26.2970625 23.2154187,27.8315552 25.7989809,28.9098672 L28.2443731,25.3635003 L34,28.7234471 L33.0064909,30.4260834 L28.8299513,27.9887329 L26.5475853,31.2982367 Z" id="Protein" sketch:type="MSShapeGroup"></path>
        </g>
    </g>
</svg>